<svg xmlns="http://www.w3.org/2000/svg" width="24" height="24" viewBox="0 0 24 24"><defs><style>.a,.b{fill:#fff;}.a{stroke:#d1e1f4;}.b{opacity:0;}.c{fill:#123fa0;}.d{stroke:none;}.e{fill:none;}</style></defs><g transform="translate(-1170 20021)"><g class="a" transform="translate(1170 -20021)"><circle class="d" cx="12" cy="12" r="12"/><circle class="e" cx="12" cy="12" r="11.5"/></g><g transform="translate(1170 -20078.361)"><rect class="b" width="24" height="24" transform="translate(0 57.361)"/><path class="c" d="M21.062,77.114H12.569a.76.76,0,0,1,0-1.52h8.493L18.1,72.63a.7.7,0,0,1-.218-.532.763.763,0,0,1,.237-.532.8.8,0,0,1,.532-.219.7.7,0,0,1,.532.219l4.256,4.255a.666.666,0,0,1,.161.247.879.879,0,0,1,0,.57.662.662,0,0,1-.161.247l-4.256,4.256a.709.709,0,0,1-.522.209.774.774,0,0,1-.542-.209.757.757,0,0,1,0-1.083Z" transform="translate(-5.905 -6.993)"/></g></g></svg>