<svg xmlns="http://www.w3.org/2000/svg" width="20" height="20" viewBox="0 0 20 20"><defs><style>.a{fill:none;}.b{fill:#123fa0;}</style></defs><rect class="a" width="20" height="20"/><path class="b" d="M12,12a.818.818,0,0,0,.833-.833V9.5H14.5a.833.833,0,1,0,0-1.667H12.833V6.167a.833.833,0,1,0-1.667,0V7.833H9.5A.833.833,0,1,0,9.5,9.5h1.667v1.667A.82.82,0,0,0,12,12ZM7,15.333a1.673,1.673,0,0,1-1.667-1.667v-10a1.606,1.606,0,0,1,.49-1.178A1.6,1.6,0,0,1,7,2H17a1.608,1.608,0,0,1,1.177.489,1.608,1.608,0,0,1,.489,1.178v10A1.672,1.672,0,0,1,17,15.333Zm0-1.667H17v-10H7Zm-3.333,5a1.6,1.6,0,0,1-1.177-.49A1.6,1.6,0,0,1,2,17V6.167a.818.818,0,0,1,.833-.833.817.817,0,0,1,.833.833V17H14.5a.833.833,0,1,1,0,1.667ZM7,3.667v0Z" transform="translate(-0.333 -0.333)"/></svg>