<svg id="Group_1373502" data-name="Group 1373502" xmlns="http://www.w3.org/2000/svg" width="24" height="24" viewBox="0 0 24 24">
  <rect id="Rectangle_243084" data-name="Rectangle 243084" width="24" height="24" fill="#fff" opacity="0"/>
  <path id="Path_210254" data-name="Path 210254" d="M14,24a9.676,9.676,0,0,1-3.875-.788,10.075,10.075,0,0,1-5.338-5.337,9.989,9.989,0,0,1,0-7.775,9.993,9.993,0,0,1,2.15-3.175,10.255,10.255,0,0,1,3.188-2.138,9.989,9.989,0,0,1,7.775,0A9.984,9.984,0,0,1,23.212,10.1a9.989,9.989,0,0,1,0,7.775,10.255,10.255,0,0,1-2.137,3.188,9.993,9.993,0,0,1-3.175,2.15A9.736,9.736,0,0,1,14,24Z" transform="translate(-2 -2)" opacity="0"/>
  <path id="Path_210255" data-name="Path 210255" d="M17.25,22.962l-2.45-2.45a.748.748,0,0,0-.55-.225.791.791,0,0,0-.575.25.785.785,0,0,0,0,1.1l3.05,3.075a.725.725,0,0,0,1.05,0l5.975-5.975a.786.786,0,0,0,0-1.15.847.847,0,0,0-1.15.025Z" transform="translate(-6.725 -8.687)" fill="#fff"/>
</svg>