<svg id="Group_1372342" data-name="Group 1372342" xmlns="http://www.w3.org/2000/svg" width="16" height="16" viewBox="0 0 16 16">
  <path id="Path_209382" data-name="Path 209382" d="M306,314a8,8,0,1,1,8-8A8.01,8.01,0,0,1,306,314Z" transform="translate(-298 -298)" fill="#ffeec8" fill-rule="evenodd"/>
  <g id="Group_1376569" data-name="Group 1376569" transform="translate(3241.086 -5049.109)">
    <path id="Subtraction_4" data-name="Subtraction 4" d="M2.659,6.919H.069A.07.07,0,0,1,.019,6.9.071.071,0,0,1,0,6.847a3.275,3.275,0,0,1,2-2.94l.006,0A2.159,2.159,0,0,1,3.268,0a2.152,2.152,0,0,1,1.9,1.146,2.157,2.157,0,0,0-.687,3.826l-.006,0h0A3.282,3.282,0,0,0,2.737,6.715c-.028.066-.054.134-.078.2Z" transform="translate(-3238.065 5052.963)" fill="#feb50d"/>
    <path id="user" d="M7.528,6.693A3.283,3.283,0,0,0,5.789,4.954l-.01,0a2.155,2.155,0,1,0-2.524,0l-.01,0a3.267,3.267,0,0,0-2,2.939.07.07,0,0,0,.07.071h6.4a.07.07,0,0,0,.07-.071A3.239,3.239,0,0,0,7.528,6.693Z" transform="translate(-3235.893 5053.29)" fill="#feb50d"/>
  </g>
</svg>
