<?xml version="1.0" encoding="UTF-8"?>
<svg version="1.1" xmlns="http://www.w3.org/2000/svg" width="164" height="164">
<path d="M0 0 C1.05058594 0.350625 2.10117188 0.70125 3.18359375 1.0625 C21.56263724 7.94567884 35.87894731 21.90599915 45 39 C45.48082031 39.89203125 45.96164063 40.7840625 46.45703125 41.703125 C55.69577902 60.34809029 57.10764258 82.65557682 51.18359375 102.5390625 C50.79300781 103.68117188 50.40242187 104.82328125 50 106 C49.49146484 107.55847656 49.49146484 107.55847656 48.97265625 109.1484375 C42.22976269 127.43343711 27.21264672 143.17862828 10 152 C-9.42769805 160.90009911 -32.20826656 163.90528193 -52.828125 157.1875 C-53.87484375 156.795625 -54.9215625 156.40375 -56 156 C-57.02609375 155.649375 -58.0521875 155.29875 -59.109375 154.9375 C-78.07278412 147.86306758 -94.4692641 132.35019617 -102.93017578 113.98046875 C-111.47736994 93.97579615 -113.70170339 70.6673161 -106 50 C-97.25356142 29.07792426 -83.12183689 11.24306413 -61.90234375 2.1796875 C-42.08685555 -5.72666691 -20.31289537 -6.96180405 0 0 Z " fill="#E0203F" transform="translate(110,4)"/>
<path d="M0 0 C4.24849657 0.88510345 5.42726241 2.1014739 8 5.625 C8.74567166 9.6754121 8.6765706 13.67659088 8.62890625 17.78515625 C8.63131821 18.96718124 8.63373016 20.14920624 8.63621521 21.36705017 C8.6352368 23.86265421 8.62184486 26.35827997 8.59692383 28.85375977 C8.5625912 32.67734299 8.57627377 36.49861872 8.59570312 40.32226562 C8.58880553 42.74740569 8.57913394 45.17253978 8.56640625 47.59765625 C8.57136612 48.74250992 8.57632599 49.88736359 8.58143616 51.06690979 C8.56559982 52.13158981 8.54976349 53.19626984 8.53344727 54.29321289 C8.52724869 55.22855362 8.52105011 56.16389435 8.5146637 57.12757874 C7.84787119 60.36320967 6.52928402 61.56936053 4 63.625 C2 64.15625 2 64.15625 0 64.125 C-0.99 64.14046875 -0.99 64.14046875 -2 64.15625 C-4.91229207 63.38267242 -6.09232095 61.9242364 -8 59.625 C-8.5146637 57.12757874 -8.5146637 57.12757874 -8.53344727 54.29321289 C-8.5492836 53.22853287 -8.56511993 52.16385284 -8.58143616 51.06690979 C-8.57647629 49.92205612 -8.57151642 48.77720245 -8.56640625 47.59765625 C-8.57260483 46.41658798 -8.57880341 45.23551971 -8.58518982 44.0186615 C-8.59229277 41.52131983 -8.58910581 39.02393086 -8.57641602 36.52661133 C-8.56256345 32.70500489 -8.59660334 28.88585222 -8.63476562 25.06445312 C-8.63571692 22.63802023 -8.63385745 20.21158428 -8.62890625 17.78515625 C-8.64216446 16.64232681 -8.65542267 15.49949738 -8.66908264 14.32203674 C-8.57626905 6.41423675 -8.57626905 6.41423675 -5.64819336 2.40405273 C-3 0.625 -3 0.625 0 0 Z " fill="#FEFDFD" transform="translate(82,29.375)"/>
<path d="M0 0 C3.74785043 2.08213913 4.79482295 3.2947039 6 7.4375 C6 11.39137798 5.38207721 12.91212214 3 16 C1 18 1 18 -2.8125 18.4375 C-6.21763815 18.338261 -7.029595 17.97965344 -10 15.9375 C-12.51930235 12.23727467 -12.7066341 10.3968344 -12 6 C-8.59923278 0.78549026 -6.21541624 -0.60935453 0 0 Z " fill="#FEF7F8" transform="translate(85,115)"/>
</svg>
