<svg xmlns="http://www.w3.org/2000/svg" width="12" height="12" viewBox="0 0 12 12"><defs><style>.a{fill:#123fa0;}</style></defs><path class="a" d="M11.929,2H6.471A2.074,2.074,0,0,0,4.4,4.071V4.4H4.071A2.074,2.074,0,0,0,2,6.471v5.457A2.074,2.074,0,0,0,4.071,14H9.529a2.068,2.068,0,0,0,2.044-1.8h.356A2.074,2.074,0,0,0,14,10.129V4.071A2.074,2.074,0,0,0,11.929,2Zm.871,8.129a.872.872,0,0,1-.871.871H11.6V6.471A2.074,2.074,0,0,0,9.529,4.4H5.6V4.071A.872.872,0,0,1,6.471,3.2h5.457a.872.872,0,0,1,.871.871Z" transform="translate(-2 -2)"/></svg>