<svg id="Group_1372342" data-name="Group 1372342" xmlns="http://www.w3.org/2000/svg" width="16" height="16" viewBox="0 0 16 16">
  <path id="Path_209382" data-name="Path 209382" d="M306,314a8,8,0,1,1,8-8A8.01,8.01,0,0,1,306,314Z" transform="translate(-298 -298)" fill="#ffeec8" fill-rule="evenodd"/>
  <path id="file" d="M166.813,66.2a.313.313,0,0,1,.092.222v6.049a.314.314,0,0,1-.314.314h-6.277a.314.314,0,0,1-.314-.314v-8.16a.314.314,0,0,1,.314-.314h4.165a.316.316,0,0,1,.223.092Zm-.632.366-1.846-1.846V66.57Z" transform="translate(-155.452 -60.394)" fill="#feb50d"/>
</svg>
