<?xml version="1.0" encoding="UTF-8"?>
<svg version="1.1" xmlns="http://www.w3.org/2000/svg" width="164" height="164">
<path d="M0 0 C1.05058594 0.350625 2.10117188 0.70125 3.18359375 1.0625 C21.56263724 7.94567884 35.87894731 21.90599915 45 39 C45.48082031 39.89203125 45.96164063 40.7840625 46.45703125 41.703125 C55.69577902 60.34809029 57.10764258 82.65557682 51.18359375 102.5390625 C50.79300781 103.68117188 50.40242187 104.82328125 50 106 C49.49146484 107.55847656 49.49146484 107.55847656 48.97265625 109.1484375 C42.22976269 127.43343711 27.21264672 143.17862828 10 152 C-9.42769805 160.90009911 -32.20826656 163.90528193 -52.828125 157.1875 C-53.87484375 156.795625 -54.9215625 156.40375 -56 156 C-57.02609375 155.649375 -58.0521875 155.29875 -59.109375 154.9375 C-78.07278412 147.86306758 -94.4692641 132.35019617 -102.93017578 113.98046875 C-111.47736994 93.97579615 -113.70170339 70.6673161 -106 50 C-97.25356142 29.07792426 -83.12183689 11.24306413 -61.90234375 2.1796875 C-42.08685555 -5.72666691 -20.31289537 -6.96180405 0 0 Z " fill="#01AA90" transform="translate(110,4)"/>
<path d="M0 0 C3.68792373 0.60153732 5.30492567 1.67620542 7.79150391 4.45532227 C8.54150391 7.20532227 8.54150391 7.20532227 7.79150391 10.45532227 C2.54754912 17.66917625 -4.35944302 23.83838394 -10.61865234 30.17407227 C-11.15637205 30.7183638 -11.69409176 31.26265533 -12.248106 31.82344055 C-15.08508443 34.69274325 -17.92594787 37.5581441 -20.76928711 40.42114258 C-23.11381288 42.78359423 -25.44948956 45.15430862 -27.77807617 47.5324707 C-30.60638212 50.42087618 -33.44905442 53.2943654 -36.30270195 56.1577301 C-37.38310696 57.24668823 -38.45837393 58.34076964 -39.52827644 59.44004822 C-41.02130845 60.97190796 -42.53209999 62.48383475 -44.04858398 63.99243164 C-44.90239151 64.85654663 -45.75619904 65.72066162 -46.63587952 66.61096191 C-49.79994914 68.8793468 -51.39346831 69.04787796 -55.20849609 68.45532227 C-57.06221008 67.3298645 -57.06221008 67.3298645 -58.62768555 65.7331543 C-59.52309807 64.84190353 -59.52309807 64.84190353 -60.43659973 63.93264771 C-61.05870834 63.28270844 -61.68081696 62.63276917 -62.32177734 61.96313477 C-62.97679733 61.30199677 -63.63181732 60.64085876 -64.3066864 59.95968628 C-66.39256377 57.84689105 -68.45639702 55.71389351 -70.52099609 53.58032227 C-71.92916961 52.15062398 -73.33866083 50.72222229 -74.74951172 49.29516602 C-77.31951839 46.68302809 -79.88775441 44.0693951 -82.4362793 41.4362793 C-82.94890823 40.90777374 -83.46153717 40.37926819 -83.98970032 39.83474731 C-85.87056428 37.70599785 -86.20960884 36.44508496 -86.52099609 33.58032227 C-86.20849609 30.45532227 -86.20849609 30.45532227 -84.64599609 28.08032227 C-81.27600412 25.83366095 -79.20288444 26.02975391 -75.20849609 26.45532227 C-72.54956055 28.39892578 -72.54956055 28.39892578 -70.07177734 31.08422852 C-68.71149414 32.5121875 -68.71149414 32.5121875 -67.32373047 33.96899414 C-66.38785725 34.98377079 -65.45362869 36.00006652 -64.52099609 37.01782227 C-62.67767784 39.01356451 -60.81802625 40.98914134 -58.94677734 42.95922852 C-58.13249268 43.84425049 -57.31820801 44.72927246 -56.47924805 45.64111328 C-54.41583179 47.6911456 -54.41583179 47.6911456 -52.08325195 47.39111328 C-48.98612273 45.84517028 -46.80547574 43.31571353 -44.45849609 40.83032227 C-41.30865642 37.53882314 -38.15244515 34.36921901 -34.66943359 31.42797852 C-30.80990898 28.10245301 -27.27459679 24.52000477 -23.73193359 20.86547852 C-23.15362793 20.2721875 -22.57532227 19.67889648 -21.97949219 19.06762695 C-19.56351365 16.58864596 -17.1486028 14.10929558 -14.75732422 11.60644531 C-12.99173872 9.76222569 -11.20768324 7.93769423 -9.41943359 6.11547852 C-8.8849057 5.54684586 -8.35037781 4.9782132 -7.7996521 4.39234924 C-5.21738656 1.79160174 -3.6770376 0.52181366 0 0 Z " fill="#FDFEFE" transform="translate(121.20849609375,51.544677734375)"/>
</svg>
