<svg xmlns="http://www.w3.org/2000/svg" width="14" height="14" viewBox="0 0 14 14"><defs><style>.a{fill:none;}.b{fill:#123fa0;}</style></defs><g transform="translate(-7003 -12656)"><rect class="a" width="14" height="14" transform="translate(7003 12656)"/><g transform="translate(7002 12654.5)"><path class="b" d="M13.474,2H12.165V3.3a.436.436,0,0,1-.872,0V2H4.315V3.3a.436.436,0,0,1-.872,0V2H2.134A1.2,1.2,0,0,0,1,3.3V4.86H14.956V3.3A1.468,1.468,0,0,0,13.474,2ZM1,5.77V13.7A1.179,1.179,0,0,0,2.178,15h11.34A1.468,1.468,0,0,0,15,13.7V5.77Zm3.882,7.28H3.835a.343.343,0,0,1-.349-.347V11.62a.343.343,0,0,1,.349-.347h1.09a.343.343,0,0,1,.349.347V12.7a.381.381,0,0,1-.393.347Zm0-3.9H3.835A.343.343,0,0,1,3.486,8.8V7.72a.343.343,0,0,1,.349-.347h1.09a.343.343,0,0,1,.349.347V8.8a.381.381,0,0,1-.393.347Zm3.489,3.9H7.28a.343.343,0,0,1-.349-.347V11.62a.343.343,0,0,1,.349-.347h1.09a.343.343,0,0,1,.349.347V12.7A.32.32,0,0,1,8.371,13.05Zm0-3.9H7.28A.343.343,0,0,1,6.931,8.8V7.72a.343.343,0,0,1,.349-.347h1.09a.343.343,0,0,1,.349.347V8.8A.32.32,0,0,1,8.371,9.15Zm3.489,3.9h-1.09a.343.343,0,0,1-.349-.347V11.62a.343.343,0,0,1,.349-.347h1.09a.343.343,0,0,1,.349.347V12.7A.32.32,0,0,1,11.86,13.05Zm0-3.9h-1.09a.343.343,0,0,1-.349-.347V7.72a.343.343,0,0,1,.349-.347h1.09a.343.343,0,0,1,.349.347V8.8A.32.32,0,0,1,11.86,9.15Z"/></g></g></svg>