<svg xmlns="http://www.w3.org/2000/svg" width="24.001" height="24" viewBox="0 0 24.001 24">
  <g id="Group_1710385" data-name="Group 1710385" transform="translate(10170 9720)">
    <rect id="Rectangle_448354" data-name="Rectangle 448354" width="24.001" height="24" transform="translate(-10170 -9720)" fill="none"/>
    <path id="Path_1823270" data-name="Path 1823270" d="M6.372,22.131A2.259,2.259,0,0,1,4.12,19.88V5.246A1.105,1.105,0,0,1,2.995,4.12,1.1,1.1,0,0,1,4.12,2.995h4.5A1.107,1.107,0,0,1,9.749,1.869h4.5a1.107,1.107,0,0,1,1.126,1.126h4.5A1.1,1.1,0,0,1,21,4.12,1.105,1.105,0,0,1,19.88,5.246V19.88a2.259,2.259,0,0,1-2.252,2.251ZM17.628,5.246H6.372V19.88H17.628Zm-11.256,0v0ZM12,14.139l2.139,2.139A1.115,1.115,0,0,0,15.715,14.7l-2.139-2.139,2.139-2.139a1.115,1.115,0,0,0-1.576-1.576L12,10.987,9.861,8.848a1.115,1.115,0,0,0-1.576,1.576l2.139,2.139L8.285,14.7a1.115,1.115,0,0,0,1.576,1.576Z" transform="translate(-10170 -9720)" fill="#c2272e"/>
  </g>
</svg>
