<svg xmlns="http://www.w3.org/2000/svg" width="16" height="14.476" viewBox="0 0 16 14.476">
  <path id="forward_to_inbox_FILL0_wght400_GRAD0_opsz24" d="M87.619-793.143l-6.1-3.81v7.619h6.857v1.524H81.524a1.467,1.467,0,0,1-1.076-.448A1.467,1.467,0,0,1,80-789.333v-9.143a1.467,1.467,0,0,1,.448-1.076A1.467,1.467,0,0,1,81.524-800h12.19a1.467,1.467,0,0,1,1.076.448,1.467,1.467,0,0,1,.448,1.076v5.333H93.714v-3.81Zm0-1.524,6.1-3.81H81.524Zm5.333,9.143-1.067-1.067,1.2-1.219H89.9v-1.524h3.181l-1.219-1.219,1.086-1.067L96-788.571ZM81.524-796.952v0Z" transform="translate(-80 800)" fill="#ffffff"/>
</svg>
