<svg xmlns="http://www.w3.org/2000/svg" width="160" height="140" viewBox="0 0 160 140"><defs><style>.a{fill:#fff;}.b{fill:#123fa0;}.c{fill:#2a64e2;}.d{fill:#5d8df5;}.e{fill:#ececec;}.f{fill:#efefef;}.g{fill:#dcdcdc;}.h{fill:#d1d1d1;}.i{fill:#ffb200;}.j{fill:#c2272e;}</style></defs><g transform="translate(-656.298 -99.933)"><path class="a" d="M796.06,221.867c-18.042,18.49-99.948,17.946-115.52,3.517-20.655-19.143-34.187-86.032-14.82-104.993,28.925-28.315,132.345-26.321,146.664,5C821.3,144.826,814.854,202.58,796.06,221.867Z" transform="translate(-0.043 -0.349)"/><g transform="translate(684.6 116.613)"><path class="b" d="M112.706,133.909,64.23,158.147,15.754,133.909v51.708L64.23,209.854l48.476-24.238Z" transform="translate(-12.523 -106.439)"/><path class="b" d="M112.706,157.538v15.108L64.391,196.319,15.754,172.565V157.538L64.23,181.291Z" transform="translate(-12.522 -125.221)"/><path class="c" d="M15.754,216.115V164.408L61,141.786H64.23v50.092Z" transform="translate(35.953 -112.7)"/><path class="b" d="M64.23,157.538v15.108L15.916,196.319l-.162-.081V181.291Z" transform="translate(35.953 -125.221)"/><path class="d" d="M103.416,25.774,51.708,0,0,25.774v3.393L51.708,54.94l51.708-25.692Z" transform="translate(0 -0.001)"/><path class="e" d="M103.449,20.682c1.7-3.07,5.332-4.928,9.614-4.928,9.776,0,16.643,9.13,20.037,14.947,3.393-5.817,10.341-14.866,20.037-14.866,6.221,0,10.665,3.8,10.665,8.968,0,9.21-10.1,15.189-30.378,15.189S102.4,32.317,102.4,24.884A8.532,8.532,0,0,1,103.449,20.682Zm47.587,9.938c2.262-1.535,3.07-3.232,3.07-4.363,0-1.373-1.293-2.424-3.151-2.424-4.363,0-7.837,5.736-9.776,9.7A20.86,20.86,0,0,0,151.036,30.62Zm-35.872,0c1.778,1.131,4.767,2.5,9.857,2.908-1.858-3.959-5.332-9.7-9.776-9.7-1.858,0-3.151,1.05-3.151,2.424C112.094,27.388,112.9,29.085,115.164,30.62Z" transform="translate(-81.393 -12.522)"/><path class="c" d="M103.416,126.032,51.708,151.32,0,126.032v16.724l51.869,25.288,51.546-25.288Z" transform="translate(0 -100.178)"/><path class="f" d="M107.451,117.126v-1.858l19.39-10.5,19.39,10.5v1.858l12.927-5.655v-2.585L127.488,92.161l-.646.323-.646-.323L94.524,108.8v2.585Z" transform="translate(-75.134 -73.255)"/><path class="g" d="M359.512,179.757v51.627l-12.927-6.464V173.293Z" transform="translate(-327.195 -137.744)"/><path class="h" d="M107.45,225l-12.927,6.464V179.837l12.927-6.544Z" transform="translate(-23.425 -137.744)"/></g><path class="i" d="M1011.89,106.652a6.732,6.732,0,0,0-6.719,6.719,6.732,6.732,0,0,0-6.719-6.719,6.732,6.732,0,0,0,6.719-6.719A6.708,6.708,0,0,0,1011.89,106.652Z" transform="translate(-230.991 0)"/><path class="i" d="M981.421,474.33a9.951,9.951,0,0,0-9.952,9.952,9.951,9.951,0,0,0-9.952-9.952,9.952,9.952,0,0,0,9.952-9.952A9.952,9.952,0,0,0,981.421,474.33Z" transform="translate(-206.074 -244.35)"/><path class="i" d="M668.729,217.365a6.218,6.218,0,0,0-6.216,6.216,6.218,6.218,0,0,0-6.216-6.216,6.218,6.218,0,0,0,6.216-6.216A6.241,6.241,0,0,0,668.729,217.365Z" transform="translate(0 -74.589)"/><path class="j" d="M887.579,334.071a23.531,23.531,0,1,0-23.531-23.531A23.531,23.531,0,0,0,887.579,334.071Z" transform="translate(-176.935 -105.689)"/><path class="a" d="M909.965,332.933a3.851,3.851,0,0,0,0,5.425l4.782,4.809-4.658,4.685a3.851,3.851,0,0,0,0,5.424,3.8,3.8,0,0,0,5.4,0l4.658-4.684,4.658,4.684a3.8,3.8,0,0,0,5.4,0,3.85,3.85,0,0,0,0-5.424l-4.658-4.685,4.782-4.809a3.851,3.851,0,0,0,0-5.425,3.8,3.8,0,0,0-5.4,0l-4.782,4.809-4.783-4.809A3.8,3.8,0,0,0,909.965,332.933Z" transform="translate(-209.512 -138.308)"/></g></svg>