<svg xmlns="http://www.w3.org/2000/svg" width="24" height="24" viewBox="0 0 24 24"><defs><style>.a{fill:#fff;opacity:0;}.b{fill:#123fa0;}.b,.d{stroke:#123fa0;}.c{fill:#eef7ff;}.d,.f{fill:none;}.e{stroke:none;}</style></defs><g transform="translate(-4804 -1673)"><g transform="translate(4660 1289)"><rect class="a" width="24" height="24" transform="translate(144 384)"/><g transform="translate(167 385) rotate(90)"><g class="b"><rect class="e" width="22" height="22" rx="11"/><rect class="f" x="0.5" y="0.5" width="21" height="21" rx="10.5"/></g></g><path class="c" d="M91-863.5a1.064,1.064,0,0,0,.784-.316,1.064,1.064,0,0,0,.316-.784V-869a1.064,1.064,0,0,0-.316-.784A1.064,1.064,0,0,0,91-870.1a1.064,1.064,0,0,0-.784.316A1.064,1.064,0,0,0,89.9-869v4.4a1.064,1.064,0,0,0,.316.784A1.064,1.064,0,0,0,91-863.5Zm0-8.8a1.064,1.064,0,0,0,.784-.316,1.064,1.064,0,0,0,.316-.784,1.064,1.064,0,0,0-.316-.784A1.064,1.064,0,0,0,91-874.5a1.064,1.064,0,0,0-.784.316,1.064,1.064,0,0,0-.316.784,1.064,1.064,0,0,0,.316.784A1.064,1.064,0,0,0,91-872.3ZM91-858a10.711,10.711,0,0,1-4.29-.866,11.107,11.107,0,0,1-3.493-2.351,11.107,11.107,0,0,1-2.351-3.492A10.711,10.711,0,0,1,80-869a10.711,10.711,0,0,1,.866-4.29,11.107,11.107,0,0,1,2.351-3.492,11.108,11.108,0,0,1,3.493-2.351A10.712,10.712,0,0,1,91-880a10.712,10.712,0,0,1,4.29.866,11.108,11.108,0,0,1,3.492,2.351,11.107,11.107,0,0,1,2.351,3.492A10.711,10.711,0,0,1,102-869a10.711,10.711,0,0,1-.866,4.29,11.107,11.107,0,0,1-2.351,3.492,11.107,11.107,0,0,1-3.492,2.351A10.711,10.711,0,0,1,91-858Z" transform="translate(65 1265)"/><g transform="translate(167 385) rotate(90)"><g class="d"><rect class="e" width="22" height="22" rx="11"/><rect class="f" x="0.5" y="0.5" width="21" height="21" rx="10.5"/></g></g></g></g></svg>