<svg xmlns="http://www.w3.org/2000/svg" width="16" height="16" viewBox="0 0 16 16">
  <path id="info_FILL0_wght400_GRAD0_opsz24" d="M87.2-868h1.6v-4.8H87.2Zm.8-6.4a.774.774,0,0,0,.57-.23.774.774,0,0,0,.23-.57.774.774,0,0,0-.23-.57A.774.774,0,0,0,88-876a.774.774,0,0,0-.57.23.774.774,0,0,0-.23.57.774.774,0,0,0,.23.57A.774.774,0,0,0,88-874.4ZM88-864a7.789,7.789,0,0,1-3.12-.63,8.078,8.078,0,0,1-2.54-1.71,8.078,8.078,0,0,1-1.71-2.54A7.79,7.79,0,0,1,80-872a7.79,7.79,0,0,1,.63-3.12,8.081,8.081,0,0,1,1.71-2.54,8.078,8.078,0,0,1,2.54-1.71A7.789,7.789,0,0,1,88-880a7.789,7.789,0,0,1,3.12.63,8.078,8.078,0,0,1,2.54,1.71,8.081,8.081,0,0,1,1.71,2.54A7.791,7.791,0,0,1,96-872a7.79,7.79,0,0,1-.63,3.12,8.078,8.078,0,0,1-1.71,2.54,8.078,8.078,0,0,1-2.54,1.71A7.789,7.789,0,0,1,88-864Zm0-1.6a6.177,6.177,0,0,0,4.54-1.86A6.177,6.177,0,0,0,94.4-872a6.177,6.177,0,0,0-1.86-4.54A6.177,6.177,0,0,0,88-878.4a6.177,6.177,0,0,0-4.54,1.86A6.177,6.177,0,0,0,81.6-872a6.177,6.177,0,0,0,1.86,4.54A6.177,6.177,0,0,0,88-865.6ZM88-872Z" transform="translate(-80 880)" fill="#aaaaad"/>
</svg>
