<svg xmlns="http://www.w3.org/2000/svg" width="28" height="28" viewBox="0 0 28 28">
  <g id="Group_1371426" data-name="Group 1371426" transform="translate(-3721.63 5709.37)">
    <path id="Path_208039" data-name="Path 208039" d="M312,326a14,14,0,1,1,14-14A14.017,14.017,0,0,1,312,326Z" transform="translate(3423.63 -6007.37)" fill="#ffdac5" fill-rule="evenodd"/>
    <path id="star" d="M102.708,73.229l-4.395-.639-1.965-3.983a.554.554,0,0,0-.994,0L93.39,72.591,89,73.229a.554.554,0,0,0-.306.945l3.18,3.1-.751,4.378a.553.553,0,0,0,.8.583l3.931-2.067,3.931,2.067a.554.554,0,0,0,.8-.583l-.751-4.378,3.18-3.1a.555.555,0,0,0-.306-.945Z" transform="translate(3639.778 -5770.669)" fill="#f16f24"/>
  </g>
</svg>
