<svg xmlns="http://www.w3.org/2000/svg" width="14" height="14" viewBox="0 0 14 14"><defs><style>.a{fill:none;}.b{fill:#123fa0;}</style></defs><g transform="translate(-7250 -12655)"><rect class="a" width="14" height="14" transform="translate(7250 12655)"/><g transform="translate(7243.75 12655)"><path class="b" d="M13.25,0A5.257,5.257,0,0,0,8,5.25c0,3.769,4.891,8.49,5.1,8.689a.217.217,0,0,0,.3,0c.208-.2,5.1-4.92,5.1-8.689A5.257,5.257,0,0,0,13.25,0Zm0,7.656A2.406,2.406,0,1,1,15.656,5.25,2.406,2.406,0,0,1,13.25,7.656Z" transform="translate(0)"/></g></g></svg>