<svg xmlns="http://www.w3.org/2000/svg" xmlns:xlink="http://www.w3.org/1999/xlink" width="256" height="80" viewBox="0 0 256 80"><defs><style>.a{fill:none;}.b{fill:url(#a);}.c{fill:url(#b);}</style><linearGradient id="a" x1="0.5" x2="0.5" y2="1" gradientUnits="objectBoundingBox"><stop offset="0" stop-color="#126ae6"/><stop offset="0.221" stop-color="#1165df"/><stop offset="0.518" stop-color="#0e5ace"/><stop offset="0.856" stop-color="#0a46b3"/><stop offset="1" stop-color="#093da5"/></linearGradient><linearGradient id="b" x1="0.5" x2="0.5" y2="1" gradientUnits="objectBoundingBox"><stop offset="0" stop-color="#eb393c"/><stop offset="0.249" stop-color="#e43437"/><stop offset="0.582" stop-color="#d32629"/><stop offset="0.963" stop-color="#b80f12"/><stop offset="1" stop-color="#b50d10"/></linearGradient></defs><rect class="a" width="256" height="80"/><path d="M116.077,34.855v-17.2h3.549v17.2Zm8.083,0v-17.2h3.675l6.773,10.6h.125v-10.6h3.4v17.2h-3.375l-7.073-11.173h-.125V34.855Zm21.956,0v-14.2h-4.974v-3h13.5v3h-4.974v14.2Zm11.533,0v-17.2H161.2v17.2Zm8.229,0v-17.2h3.549v7h1.825l5.224-7h3.874L174.1,25.882l6.324,8.973h-4.074l-5.1-7.3h-1.825v7.3Zm24.236.2a19.707,19.707,0,0,1-3.462-.25,4.988,4.988,0,0,1-2.137-.837,3.3,3.3,0,0,1-1.125-1.6,9.721,9.721,0,0,1-.45-2.512q-.1-1.5-.1-3.6t.1-3.6a9.712,9.712,0,0,1,.45-2.512,3.3,3.3,0,0,1,1.125-1.6,5,5,0,0,1,2.137-.838,24.185,24.185,0,0,1,6.923,0,5.011,5.011,0,0,1,2.138.838,3.386,3.386,0,0,1,1.137,1.6,9.426,9.426,0,0,1,.462,2.512q.1,1.5.1,3.6t-.1,3.6a9.434,9.434,0,0,1-.462,2.512,3.381,3.381,0,0,1-1.137,1.6,5,5,0,0,1-2.138.837A19.7,19.7,0,0,1,190.114,35.055Zm0-2.9a17.141,17.141,0,0,0,1.787-.075,2.363,2.363,0,0,0,1.087-.35,1.6,1.6,0,0,0,.587-.9,7.462,7.462,0,0,0,.238-1.725q.049-1.1.05-2.849t-.05-2.85a7.461,7.461,0,0,0-.238-1.724,1.6,1.6,0,0,0-.587-.9,2.363,2.363,0,0,0-1.087-.35,17.14,17.14,0,0,0-1.787-.075,16.848,16.848,0,0,0-1.763.075,2.363,2.363,0,0,0-1.087.35,1.6,1.6,0,0,0-.587.9,7.462,7.462,0,0,0-.238,1.724q-.049,1.1-.05,2.85t.05,2.849a7.463,7.463,0,0,0,.238,1.725,1.6,1.6,0,0,0,.587.9,2.363,2.363,0,0,0,1.087.35A16.848,16.848,0,0,0,190.114,32.156Zm11.187,2.7v-17.2h4.874l4.25,11.348h.15L214.8,17.658h4.849v17.2h-3.425V22.882H216.1l-4.45,11.973H209.2l-4.449-11.973h-.125V34.855Z"/><path d="M116.077,62.486V45.29h3.549v14.2h7.2v3Zm13.882,0V45.29h11.748v2.9h-8.2v4.174h7.024v2.9h-7.024v4.324h8.2v2.9Zm13.788,0,5.824-17.2h4.749l5.823,17.2h-3.624l-1.275-3.8h-6.723l-1.225,3.8Zm5.674-6.673h4.9l-2.375-7.3h-.15Zm27.254,6.673-2.749-6.773a2.993,2.993,0,0,0,1.612-1.25,4.982,4.982,0,0,0,.663-1.85,12.662,12.662,0,0,0,.15-1.874,12.472,12.472,0,0,0-.188-2.262,4.131,4.131,0,0,0-.712-1.725,3.247,3.247,0,0,0-1.537-1.087,7.913,7.913,0,0,0-2.687-.375H163v17.2h3.549v-6.3h3.7c.1,0,.2,0,.3-.008l2.376,6.306ZM172.726,52a1.314,1.314,0,0,1-.375.775,1.807,1.807,0,0,1-.9.412,8.428,8.428,0,0,1-1.649.125h-3.25V48.164h3.275a8.729,8.729,0,0,1,1.662.125,1.735,1.735,0,0,1,.887.4,1.348,1.348,0,0,1,.35.775,8.875,8.875,0,0,1,.075,1.275A8.6,8.6,0,0,1,172.726,52Zm7.754,10.485V45.29h3.674l6.774,10.6h.125V45.29h3.4v17.2h-3.374L184,51.314h-.125V62.486Zm18.361-.145v-17.2h3.55v17.2Zm8.374,0v-17.2h3.674l6.774,10.6h.125v-10.6h3.4v17.2h-3.375L210.74,51.169h-.126V62.341Zm25.41.2a17.317,17.317,0,0,1-3.187-.25,5.719,5.719,0,0,1-2.174-.837,3.888,3.888,0,0,1-1.337-1.587,8.241,8.241,0,0,1-.663-2.512,34.975,34.975,0,0,1,0-7.224,8.01,8.01,0,0,1,.675-2.512,4,4,0,0,1,1.35-1.587,5.738,5.738,0,0,1,2.162-.837,17.1,17.1,0,0,1,3.174-.25q.825,0,1.837.075t2.013.187q1,.113,1.849.288v2.724q-.875-.125-1.7-.2t-1.5-.125q-.675-.05-1.125-.05-1.425,0-2.374.063a4.469,4.469,0,0,0-1.55.337,1.88,1.88,0,0,0-.912.9,5.276,5.276,0,0,0-.438,1.737,26.406,26.406,0,0,0-.125,2.862q0,1.551.088,2.6a7.018,7.018,0,0,0,.325,1.724,2.209,2.209,0,0,0,.7,1.038,2.628,2.628,0,0,0,1.2.487,11.2,11.2,0,0,0,1.837.125q.4,0,.838-.013t.824-.037c.259-.016.471-.033.638-.05V55.368h-2.875v-2.8H238.4v9.424q-.849.174-1.9.287t-2.05.187Q233.45,62.541,232.625,62.541Z"/><path class="b" d="M29.537,47.314a28.125,28.125,0,0,0,5.9,17.276.653.653,0,0,1-.074.885l-7.9,7.153a.648.648,0,0,1-.94-.069,40.2,40.2,0,0,1-3.395-45.591.652.652,0,0,1,.994-.163l8.189,7.2a.654.654,0,0,1,.15.781A28.125,28.125,0,0,0,29.537,47.314ZM91.45,26.805l-8.188,7.2a.652.652,0,0,0-.15.781,28.267,28.267,0,0,1-2.976,29.8.652.652,0,0,0,.073.885l7.9,7.153a.648.648,0,0,0,.94-.069,40.194,40.194,0,0,0,3.394-45.591A.652.652,0,0,0,91.45,26.805Zm-1.727-3.881A40.126,40.126,0,0,0,60.2,7.2a.651.651,0,0,0-.685.651v10.66a.652.652,0,0,0,.6.648A28.219,28.219,0,0,1,80.669,30.75a.648.648,0,0,0,.953.1l8.011-7.048A.65.65,0,0,0,89.723,22.924Zm-63.784.881,8.011,7.048a.648.648,0,0,0,.953-.1A28.219,28.219,0,0,1,55.455,19.162a.653.653,0,0,0,.6-.648V7.854a.651.651,0,0,0-.685-.651A40.126,40.126,0,0,0,25.849,22.924.649.649,0,0,0,25.939,23.805Z"/><path class="c" d="M39.877,44.747v4.322c0,.369.006.738,0,1.107s-.033.694.463.855c.2.066.4.493.4.758.032,2.271.025,4.543.014,6.814a.935.935,0,0,1-.907.93c-1.836.058-1.9.009-1.9-1.813V52.128c0-.931.1-1.071,1.012-1.342V48.839c0-1.34-.012-2.68.009-4.02a.632.632,0,0,0-.453-.695c-.93-.388-1.844-.816-2.763-1.231l-.024-.012a.281.281,0,0,1,0-.51c.69-.317,1.329-.613,1.971-.9q9.778-4.425,19.557-8.851a1.129,1.129,0,0,1,1.033-.028q10.77,4.846,21.552,9.662l0,0a.281.281,0,0,1,0,.509l-.212.1c-2.967,1.344-5.931,2.7-8.907,4.02a.8.8,0,0,0-.574.858c.01,2.058-.035,4.116-.029,6.175a.643.643,0,0,1-.506.71c-3.942,1.41-7.878,2.839-11.822,4.243a1.389,1.389,0,0,1-.832-.014c-3.914-1.533-7.817-3.1-11.731-4.631a.682.682,0,0,1-.507-.77c.048-2,.056-4,.1-6a.628.628,0,0,0-.435-.7C42.92,46.118,41.46,45.454,39.877,44.747Z"/></svg>