<svg xmlns="http://www.w3.org/2000/svg" width="24" height="24.002" viewBox="0 0 24 24.002"><defs><style>.a{fill:#c1c1c1;stroke:#d1e1f4;}.b{fill:#fff;opacity:0;}.c{fill:#67686d;}.d{stroke:none;}.e{fill:none;}</style></defs><g transform="translate(-1170 19968.002)"><g class="a" transform="translate(1170 -19968)"><circle class="d" cx="12" cy="12" r="12"/><circle class="e" cx="12" cy="12" r="11.5"/></g><g transform="translate(1306 -20025.584)"><rect class="b" width="24" height="24" transform="translate(-136 57.583)"/><path class="c" d="M-112.833,74.916v-2.5a2.5,2.5,0,0,0-2.5-2.5h-3.333a2.5,2.5,0,0,0-2.5,2.5v2.5a.834.834,0,0,0-.833.833v5a.833.833,0,0,0,.244.59.833.833,0,0,0,.589.244h8.333a.833.833,0,0,0,.589-.244.833.833,0,0,0,.244-.59v-5a.834.834,0,0,0-.833-.833Zm-3.571,4.35a.208.208,0,0,1-.051.164.208.208,0,0,1-.156.07h-.778a.208.208,0,0,1-.156-.07.208.208,0,0,1-.051-.164l.1-.77a.829.829,0,0,1-.334-.663A.834.834,0,0,1-117,77a.834.834,0,0,1,.833.834.829.829,0,0,1-.334.663Zm2.321-4.35h-5.833v-2.5a1.251,1.251,0,0,1,1.25-1.25h3.333a1.251,1.251,0,0,1,1.25,1.25Z" transform="translate(-7 -6.166)"/></g></g></svg>