<svg width="512" height="512" version="1.1" xmlns="http://www.w3.org/2000/svg" desc="Created with imagetracer.js version 1.2.6" ><path fill="rgb(0,0,0)" stroke="rgb(0,0,0)" stroke-width="1" opacity="0" d="M 0 0 L 10 0.5 L 2 6.5 L 0.5 10 L 0 0 Z " /><path fill="rgb(0,0,0)" stroke="rgb(0,0,0)" stroke-width="1" opacity="0" d="M 240 0 L 271.5 0 L 272 0.5 L 272 240 L 511.5 240 L 512 240.5 L 512 272 L 272 272 L 272 511.5 L 271.5 512 L 240 512 L 240 272 L 0.5 272 L 0 271.5 L 0 240 L 240 240 L 240 0 Z " /><path fill="rgb(0,0,0)" stroke="rgb(0,0,0)" stroke-width="1" opacity="0" d="M 502.5 0 L 512 0 L 512 9.5 L 511 9.5 L 505.5 2 Q 501.7 1.7 502.5 0 Z " /><path fill="rgb(0,0,0)" stroke="rgb(0,0,0)" stroke-width="1" opacity="0" d="M 0.5 502 L 6.5 510 L 10 511.5 L 0 512 L 0.5 502 Z " /><path fill="rgb(0,0,0)" stroke="rgb(0,0,0)" stroke-width="1" opacity="0" d="M 511.5 502 L 512 512 L 502 511.5 L 510 505.5 L 511.5 502 Z " /><path fill="rgb(75,175,79)" stroke="rgb(75,175,79)" stroke-width="1" opacity="0.996078431372549" d="M 501.5 0 L 510 6.5 L 512 10.5 L 510 9.5 L 505.5 3 Q 501.5 2.5 501.5 0 Z " /><path fill="rgb(245,67,53)" stroke="rgb(245,67,53)" stroke-width="1" opacity="0.5450980392156862" d="M 10.5 0 L 14 0.5 Q 6.4 1.4 3 6.5 L 0.5 14 L 0 10.5 L 6.5 2 L 10.5 0 Z " /><path fill="rgb(244,67,54)" stroke="rgb(244,67,54)" stroke-width="1" opacity="1" d="M 14.5 0 L 240 0 L 240 240 L 0 240 L 0 14.5 Q 1.2 6.7 6.5 3 L 14.5 0 Z " /><path fill="rgb(76,175,80)" stroke="rgb(76,175,80)" stroke-width="1" opacity="1" d="M 272 0 L 498.5 0 L 499.5 1 Q 501 -1.5 502.5 2 L 509 6.5 L 512 11.5 L 512 13.5 L 512 240 L 272 240 L 272 0 Z " /><path fill="rgb(32,150,244)" stroke="rgb(32,150,244)" stroke-width="1" opacity="0.5450980392156862" d="M 0.5 498 Q 1.4 505.6 6.5 509 L 14 511.5 L 10.5 512 L 2 505.5 Q -1 502.8 0.5 498 Z " /><path fill="rgb(255,190,4)" stroke="rgb(255,190,4)" stroke-width="1" opacity="0.23529411764705882" d="M 511.5 499 L 512 501.5 L 505.5 510 L 499.5 512 L 499.5 511 Q 506.1 510.1 509 505.5 L 511.5 499 Z " /><path fill="rgb(255,193,7)" stroke="rgb(255,193,7)" stroke-width="1" opacity="0.996078431372549" d="M 511.5 496 L 512 498.5 L 511 498.5 L 511.5 496 Z " /><path fill="rgb(255,193,7)" stroke="rgb(255,193,7)" stroke-width="1" opacity="0.996078431372549" d="M 508.5 505 L 505.5 509 L 508.5 505 Z " /><path fill="rgb(255,193,7)" stroke="rgb(255,193,7)" stroke-width="1" opacity="0.996078431372549" d="M 496.5 511 L 499 511.5 L 496.5 512 L 496.5 511 Z " /><path fill="rgb(33,150,243)" stroke="rgb(33,150,243)" stroke-width="1" opacity="1" d="M 0 272 L 240 272 L 240 512 L 14.5 512 Q 6.7 510.8 3 505.5 L 0 497.5 L 0 272 Z " /><path fill="rgb(255,193,7)" stroke="rgb(255,193,7)" stroke-width="1" opacity="1" d="M 272 272 L 512 272 L 512 495.5 L 509 504.5 L 504.5 509 L 495.5 512 L 272 512 L 272 272 Z " /></svg>