<svg xmlns="http://www.w3.org/2000/svg" width="12" height="12" viewBox="0 0 12 12">
  <g id="Group_1378063" data-name="Group 1378063" transform="translate(-1.831 -11.831)">
    <g id="Group_1373778" data-name="Group 1373778" transform="translate(-8.169 1.831)">
      <g id="Group_1373835" data-name="Group 1373835">
        <rect id="Rectangle_243141" data-name="Rectangle 243141" width="12" height="12" transform="translate(10 10)" fill="none"/>
        <g id="Group_1378182" data-name="Group 1378182" transform="translate(3248.064 -5041.96)">
          <path id="Subtraction_4" data-name="Subtraction 4" d="M3.2,8.339H.084a.085.085,0,0,1-.06-.026A.085.085,0,0,1,0,8.253,3.947,3.947,0,0,1,2.406,4.71l.007,0A2.6,2.6,0,0,1,3.939,0a2.594,2.594,0,0,1,2.3,1.381,2.6,2.6,0,0,0-.828,4.611l-.007,0h0a3.955,3.955,0,0,0-2.1,2.1c-.034.079-.066.161-.094.244Z" transform="translate(-3238.065 5052.963)" fill="#67686d"/>
          <path id="user" d="M8.817,7.852a3.956,3.956,0,0,0-2.1-2.1L6.709,5.75a2.6,2.6,0,1,0-3.042,0l-.013.005A3.937,3.937,0,0,0,1.249,9.3a.084.084,0,0,0,.084.086h7.71A.084.084,0,0,0,9.126,9.3,3.9,3.9,0,0,0,8.817,7.852Z" transform="translate(-3235.191 5053.572)" fill="#67686d"/>
        </g>
      </g>
    </g>
  </g>
</svg>
