<svg xmlns="http://www.w3.org/2000/svg" width="96" height="84" viewBox="0 0 96 84"><defs><style>.a{fill:#fff;}.b{fill:#123fa0;}.c{fill:#2a64e2;}.d{fill:#5d8df5;}.e{fill:#ececec;}.f{fill:#efefef;}.g{fill:#dcdcdc;}.h{fill:#d1d1d1;}.i{fill:#ffb200;}.j{fill:#c2272e;}</style></defs><g transform="translate(-656.298 -99.933)"><path class="a" d="M740.181,173.3c-10.825,11.094-59.969,10.768-69.312,2.11-12.393-11.486-20.512-51.619-8.892-63,17.355-16.989,79.407-15.792,88,3C755.324,127.076,751.458,161.728,740.181,173.3Z" transform="translate(-0.052 -0.417)"/><g transform="translate(673.279 109.941)"><path class="b" d="M73.925,133.909,44.84,148.452,15.754,133.909v31.025L44.84,179.476l29.086-14.543Z" transform="translate(-13.815 -117.427)"/><path class="b" d="M73.925,157.538V166.6l-28.989,14.2L15.754,166.554v-9.016L44.84,171.79Z" transform="translate(-13.815 -138.148)"/><path class="c" d="M15.754,186.384V155.359L42.9,141.786H44.84v30.055Z" transform="translate(15.271 -124.335)"/><path class="b" d="M44.84,157.538V166.6l-28.989,14.2-.1-.049V171.79Z" transform="translate(15.271 -138.148)"/><path class="d" d="M62.049,15.465,31.025,0,0,15.465V17.5L31.025,32.965,62.049,17.549Z" transform="translate(0 -0.001)"/><path class="e" d="M103.029,18.711a6.388,6.388,0,0,1,5.769-2.957c5.866,0,9.986,5.478,12.022,8.968,2.036-3.49,6.2-8.92,12.022-8.92,3.733,0,6.4,2.278,6.4,5.381,0,5.526-6.06,9.113-18.227,9.113S102.4,25.692,102.4,21.232A5.119,5.119,0,0,1,103.029,18.711Zm28.552,5.963a3.535,3.535,0,0,0,1.842-2.618c0-.824-.776-1.454-1.891-1.454-2.618,0-4.7,3.442-5.866,5.817A12.516,12.516,0,0,0,131.581,24.674Zm-21.523,0a12.514,12.514,0,0,0,5.914,1.745c-1.115-2.375-3.2-5.817-5.866-5.817-1.115,0-1.891.63-1.891,1.454A3.534,3.534,0,0,0,110.058,24.674Z" transform="translate(-89.795 -13.815)"/><path class="c" d="M62.049,126.032,31.025,141.205,0,126.032v10.035L31.122,151.24l30.928-15.173Z" transform="translate(0 -110.52)"/><path class="f" d="M102.28,107.14v-1.115l11.634-6.3,11.634,6.3v1.115l7.756-3.393V102.2l-19-10.035-.388.194-.388-.194-19,9.986V103.7Z" transform="translate(-82.89 -80.818)"/><path class="g" d="M354.341,177.171v30.976l-7.756-3.878V173.293Z" transform="translate(-334.951 -151.964)"/><path class="h" d="M102.279,204.318,94.523,208.2V177.22l7.756-3.927Z" transform="translate(-51.864 -151.964)"/></g><path class="i" d="M1006.515,103.964a4.031,4.031,0,1,1-8.063,0,4.031,4.031,0,0,1,8.063,0Z" transform="translate(-275.456)"/><path class="i" d="M973.46,470.349a5.971,5.971,0,0,0-5.971,5.971,5.971,5.971,0,0,0-5.971-5.971,5.971,5.971,0,0,0,5.971-5.971A5.971,5.971,0,0,0,973.46,470.349Z" transform="translate(-245.732 -292.388)"/><path class="i" d="M663.757,214.878a3.731,3.731,0,0,0-3.729,3.73,3.731,3.731,0,0,0-3.729-3.73,3.731,3.731,0,0,0,3.729-3.729A3.744,3.744,0,0,0,663.757,214.878Z" transform="translate(0 -89.24)"/><path class="j" d="M878.166,315.247a14.118,14.118,0,1,0-14.118-14.118A14.118,14.118,0,0,0,878.166,315.247Z" transform="translate(-189.261 -138.244)"/><path class="a" d="M909.518,332.484a2.31,2.31,0,0,0,0,3.255l2.869,2.885-2.8,2.811a2.311,2.311,0,0,0,0,3.255,2.28,2.28,0,0,0,3.237,0l2.8-2.81,2.795,2.81a2.281,2.281,0,0,0,3.237,0,2.31,2.31,0,0,0,0-3.255l-2.8-2.811,2.869-2.885a2.311,2.311,0,0,0,0-3.255,2.28,2.28,0,0,0-3.237,0l-2.869,2.885-2.87-2.885A2.28,2.28,0,0,0,909.518,332.484Z" transform="translate(-226.727 -175.736)"/></g></svg>