<svg xmlns="http://www.w3.org/2000/svg" width="24" height="24" viewBox="0 0 24 24"><defs><style>.a{fill:none;}.b{fill:#123fa0;}</style></defs><g transform="translate(8992 139.999)"><rect class="a" width="24" height="24" transform="translate(-8992 -139.999)"/><g transform="translate(-8948 -107.232)"><path class="b" d="M-32-12.268c-8.447,0-10.935-8.136-10.959-8.218a.985.985,0,0,1,0-.564c.024-.082,2.512-8.218,10.959-8.218s10.935,8.136,10.959,8.218a.985.985,0,0,1,0,.564C-21.065-20.4-23.553-12.268-32-12.268Zm-8.945-8.5c.473,1.3,2.752,6.5,8.945,6.5s8.472-5.2,8.945-6.5c-.471-1.3-2.749-6.5-8.945-6.5S-40.472-22.071-40.945-20.768Zm-1.055,0h0Z"/><path class="b" d="M-32-25.768a5.006,5.006,0,0,0-5,5,5.006,5.006,0,0,0,5,5,5.006,5.006,0,0,0,5-5A5.006,5.006,0,0,0-32-25.768Zm1,6a2,2,0,0,1-2-2,2,2,0,0,1,2-2,2,2,0,0,1,2,2A2,2,0,0,1-31-19.768Z"/></g></g></svg>