<svg xmlns="http://www.w3.org/2000/svg" width="24" height="24.001" viewBox="0 0 24 24.001"><defs><style>.a{fill:none;}.b{fill:#67686d;}</style></defs><g transform="translate(8957 140)"><g transform="translate(-8957 -106.761)"><rect class="a" width="24" height="24" transform="translate(0 -33.239)"/><path class="b" d="M22.5-17.51l-.961-.555a12.946,12.946,0,0,0,1.42-2.893,1,1,0,0,0-.675-1.239,1,1,0,0,0-1.242.674,10.96,10.96,0,0,1-1.752,3.234c-.013.02-.034.032-.047.054l0,.013a9.187,9.187,0,0,1-2.964,2.484c-.011.006-.023.005-.033.011l-.009.008a9.139,9.139,0,0,1-4.233.98,9.132,9.132,0,0,1-4.232-.979l-.01-.009c-.011-.006-.023-.005-.035-.011a9.2,9.2,0,0,1-2.962-2.485l0-.012c-.012-.021-.032-.032-.045-.051a10.955,10.955,0,0,1-1.753-3.236A1,1,0,0,0,1.718-22.2a1,1,0,0,0-.677,1.241,12.946,12.946,0,0,0,1.42,2.893L1.5-17.51a1,1,0,0,0-.366,1.366,1,1,0,0,0,.867.5,1,1,0,0,0,.5-.134l1.181-.682a11.377,11.377,0,0,0,2.224,1.944L5.313-13.49a1,1,0,0,0,.366,1.366.992.992,0,0,0,.5.134,1,1,0,0,0,.867-.5l.626-1.085A10.94,10.94,0,0,0,11-12.8v1.061a1,1,0,0,0,1,1,1,1,0,0,0,1-1V-12.8a10.94,10.94,0,0,0,3.329-.775l.626,1.085a1,1,0,0,0,.867.5.992.992,0,0,0,.5-.134,1,1,0,0,0,.367-1.366l-.593-1.026a11.377,11.377,0,0,0,2.224-1.944l1.181.682a1,1,0,0,0,.5.134,1,1,0,0,0,.867-.5A1,1,0,0,0,22.5-17.51Z"/></g><rect class="a" width="24" height="24" transform="translate(-8957 -139.999)"/></g></svg>