<svg xmlns="http://www.w3.org/2000/svg" width="18.001" height="18" viewBox="0 0 18.001 18">
  <g id="Group_1710667" data-name="Group 1710667" transform="translate(-3842 -5738)">
    <g id="Group_1710666" data-name="Group 1710666">
      <path id="Path_208039" data-name="Path 208039" d="M307,316a9,9,0,1,1,9-9A9.011,9.011,0,0,1,307,316Z" transform="translate(3544 5440)" fill="#dfffe4" fill-rule="evenodd"/>
      <g id="Group_1710624" data-name="Group 1710624" transform="translate(3845 5741)">
        <rect id="Rectangle_448393" data-name="Rectangle 448393" width="12" height="12" transform="translate(0 0)" fill="none"/>
        <path id="Path_1823349" data-name="Path 1823349" d="M3.5,12a1,1,0,0,1-1-1V5.363a1.1,1.1,0,0,1-.362-.356A.934.934,0,0,1,2,4.5V3A1,1,0,0,1,3,2h8a1,1,0,0,1,1,1V4.5a.934.934,0,0,1-.137.506,1.1,1.1,0,0,1-.363.356V11a1,1,0,0,1-1,1ZM3,4.5h8V3H3ZM5.5,8h3V7h-3Z" transform="translate(-1 -1)" fill="#18b430"/>
      </g>
    </g>
  </g>
</svg>
