<svg xmlns="http://www.w3.org/2000/svg" width="20" height="20" viewBox="0 0 20 20">
  <g id="Group_1374206" data-name="Group 1374206" transform="translate(-1286 -625)">
    <rect id="Rectangle_243256" data-name="Rectangle 243256" width="20" height="20" transform="translate(1286 625)" fill="none"/>
    <path id="Path_210331" data-name="Path 210331" d="M7,15.333a1.673,1.673,0,0,1-1.667-1.667v-10a1.606,1.606,0,0,1,.49-1.178A1.6,1.6,0,0,1,7,2H17a1.608,1.608,0,0,1,1.177.489,1.608,1.608,0,0,1,.489,1.178v10A1.672,1.672,0,0,1,17,15.333Zm0-1.667H17v-10H7Zm-3.333,5a1.6,1.6,0,0,1-1.177-.49A1.6,1.6,0,0,1,2,17V6.167a.818.818,0,0,1,.833-.833.817.817,0,0,1,.833.833V17H14.5a.833.833,0,1,1,0,1.667ZM7,3.667v0ZM10.833,11,12,9.833,13.167,11a.825.825,0,0,0,1.167-1.167L13.167,8.667,14.333,7.5a.825.825,0,0,0-1.167-1.167L12,7.5,10.833,6.333A.825.825,0,0,0,9.667,7.5l1.167,1.167L9.667,9.833A.825.825,0,0,0,10.833,11Z" transform="translate(1285.667 624.667)" fill="#fff"/>
  </g>
</svg>
