<svg xmlns="http://www.w3.org/2000/svg" width="44" height="44" viewBox="0 0 44 44">
  <g id="Group_1713510" data-name="Group 1713510" transform="translate(-999 639)">
    <rect id="Rectangle_243145" data-name="Rectangle 243145" width="44" height="44" rx="8" transform="translate(999 -639)" fill="rgba(255,255,255,0.3)"/>
    <path id="Path_2500707" data-name="Path 2500707" d="M26.772,27.817a7.356,7.356,0,0,0-1.612,2.341v-5.65H34.31v1.586a7.4,7.4,0,0,0-7.538,1.723M14.053,34.411a.921.921,0,0,0,.92.921H23.2V24.508H14.053Zm11.108-16.8H23.2v4.949H12.673V18.527a.92.92,0,0,1,.92-.921H17.84a3.969,3.969,0,0,1,6.343-4.736,3.969,3.969,0,0,1,6.343,4.736h4.247a.92.92,0,0,1,.92.921v4.028H25.161ZM23.2,15.477a2.014,2.014,0,1,0-2.015,2.014H23.2Zm1.956,2.014h2.015a2.014,2.014,0,1,0-2.015-2.014ZM37.327,33.08a5.371,5.371,0,1,1-1.584-3.832,5.217,5.217,0,0,1,1.584,3.832m-2.264,2.091-2.4-2.4v-3.19h-1.5v3.811L34,36.233Z" transform="translate(996.327 -641.502)" fill="#fff"/>
  </g>
</svg>
