<svg xmlns="http://www.w3.org/2000/svg" width="14" height="14" viewBox="0 0 14 14"><defs><style>.a{fill:none;}.b{fill:#123fa0;}</style></defs><g transform="translate(-7251 -12684)"><rect class="a" width="14" height="14" transform="translate(7251 12684)"/><g transform="translate(7174.664 12682.233)"><g transform="translate(78.336 7.851)"><g transform="translate(0)"><path class="b" d="M88.336,209.947a.552.552,0,0,0-1.1,0,3.9,3.9,0,0,1-7.794,0,.552.552,0,0,0-1.1,0,4.925,4.925,0,0,0,4.449,4.864v1.436h-2a.539.539,0,1,0,0,1.077h5.11a.539.539,0,1,0,0-1.077h-2v-1.436A4.925,4.925,0,0,0,88.336,209.947Z" transform="translate(-78.336 -209.408)"/></g></g><g transform="translate(80.338 1.767)"><g transform="translate(0)"><path class="b" d="M135.094,0a2.848,2.848,0,0,0-3,2.658V6.973a3.018,3.018,0,0,0,6,.016V2.658A2.848,2.848,0,0,0,135.094,0Z" transform="translate(-132.096)"/></g></g></g></g></svg>