<svg id="Group_1372342" data-name="Group 1372342" xmlns="http://www.w3.org/2000/svg" width="19" height="19" viewBox="0 0 19 19">
  <path id="Path_209382" data-name="Path 209382" d="M307.5,317a9.5,9.5,0,1,1,9.5-9.5A9.511,9.511,0,0,1,307.5,317Z" transform="translate(-298 -298)" fill="#ffeec8" fill-rule="evenodd"/>
  <path id="product" d="M144.218,114.39h4.141a.218.218,0,0,1,.218.218v4.141a.218.218,0,0,1-.218.218h-4.141a.218.218,0,0,1-.218-.218v-4.141a.218.218,0,0,1,.218-.218m7.687-.345,2.466,2.466a.218.218,0,0,1,0,.308l-2.466,2.466a.218.218,0,0,1-.308,0l-2.466-2.466a.218.218,0,0,1,0-.308l2.466-2.466a.218.218,0,0,1,.308,0m-7.687,5.794h4.141a.218.218,0,0,1,.218.218V124.2a.218.218,0,0,1-.218.218h-4.141A.218.218,0,0,1,144,124.2v-4.141a.218.218,0,0,1,.218-.218m5.448,0h4.141a.218.218,0,0,1,.218.218V124.2a.218.218,0,0,1-.218.218h-4.141a.218.218,0,0,1-.218-.218v-4.141a.218.218,0,0,1,.218-.218" transform="translate(-139.717 -109.699)" fill="#feb50d" fill-rule="evenodd"/>
</svg>
