<svg xmlns="http://www.w3.org/2000/svg" width="32" height="32" viewBox="0 0 32 32"><defs><style>.a{fill:#123fa0;}.b{fill:none;}.c{fill:#fff;}</style></defs><g transform="translate(0.169 0.169)"><g transform="translate(-0.169 -0.169)"><circle class="a" cx="16" cy="16" r="16"/><rect class="b" width="32" height="32"/><path class="c" d="M125.825,123.391a5.855,5.855,0,0,0-1.677-1.173,3.885,3.885,0,1,0-4.889,0,5.83,5.83,0,0,0-3.378,5.131.155.155,0,0,0,.155.159h1.087a.155.155,0,0,0,.155-.149,4.429,4.429,0,0,1,8.854,0,.155.155,0,0,0,.155.149h1.087a.155.155,0,0,0,.155-.159A5.774,5.774,0,0,0,125.825,123.391Zm-4.12-1.707a2.486,2.486,0,0,1-2.485-2.51,2.486,2.486,0,1,1,2.485,2.51Zm-4.864-1.973a4.894,4.894,0,0,1,.056-1.415.156.156,0,0,0-.087-.171,2.485,2.485,0,0,1,1.047-4.753,2.482,2.482,0,0,1,1.67.668,2.541,2.541,0,0,1,.4.474.155.155,0,0,0,.181.062,4.818,4.818,0,0,1,1.074-.241.156.156,0,0,0,.122-.225,3.886,3.886,0,1,0-5.918,4.766,5.837,5.837,0,0,0-1.679,1.173,5.774,5.774,0,0,0-1.7,3.961.155.155,0,0,0,.155.159h1.089a.155.155,0,0,0,.155-.149,4.431,4.431,0,0,1,3.328-4.139A.155.155,0,0,0,116.842,119.712Z" transform="translate(-103.764 -103.743)"/></g></g></svg>