<svg xmlns="http://www.w3.org/2000/svg" xmlns:xlink="http://www.w3.org/1999/xlink" width="160" height="140" viewBox="0 0 160 140"><defs><style>.a{fill:none;}.b{fill:#fff;}.c{fill:#f16f24;}.d{fill:#f1f2f2;}.e{fill:#e6e7e8;}.f{clip-path:url(#a);}.g{clip-path:url(#b);}.h{fill:#bba03b;}.i{fill:#ddba3b;}.j{opacity:0.1;}.k{clip-path:url(#d);}.l{fill:#e9c647;}.m{fill:#d55745;}.n{opacity:0.2;}.o{clip-path:url(#e);}.p{fill:#3e3e3e;}.q{opacity:0.75;}.r{opacity:0.5;}.s{clip-path:url(#f);}.t{clip-path:url(#g);}.u{clip-path:url(#h);}</style><clipPath id="a"><path class="a" d="M209.865,57.09s.825-25.529-28.662-39.416c-9.463-4.456-18.6-9.529-28.15-5.191l-57.588,15.1c-2.49.854-5.012,1.616-7.566,2.267-10.273,2.615-27.767,6.926-27.767,6.926A62.659,62.659,0,0,0,57.8,45.216c-.731,3.1,5.975,20.542,5.975,20.542s-6.422,2.173-8.891,11.566-1.553,21.2-.986,26.005c2.311,19.556,13.812,38.731,37.173,44.117C138.6,158.405,203.4,144.7,209.691,77.375A125.572,125.572,0,0,0,209.865,57.09Z" transform="translate(-53.256 -10.83)"/></clipPath><clipPath id="b"><rect class="a" width="141.103" height="152.501"/></clipPath><clipPath id="d"><rect class="a" width="30.03" height="105.883"/></clipPath><clipPath id="e"><rect class="a" width="37.166" height="123.825"/></clipPath><clipPath id="f"><rect class="b" width="53.901" height="53.901"/></clipPath><clipPath id="g"><rect class="c" width="31.642" height="30.345"/></clipPath><clipPath id="h"><path class="c" d="M13.488,1.217,11.141,5.972A5.343,5.343,0,0,1,7.119,8.894l-5.247.762A2.183,2.183,0,0,0,.661,13.38l3.8,3.7a5.34,5.34,0,0,1,1.536,4.728l-.477,2.783A26.548,26.548,0,0,0,27.37,9.417l-3.6-.523a5.343,5.343,0,0,1-4.022-2.922L17.4,1.217a2.182,2.182,0,0,0-3.914,0"/></clipPath></defs><g transform="translate(5529 -8179)"><rect class="a" width="160" height="140" transform="translate(-5529 8179)"/><g transform="translate(-5580.256 8168.17)"><g transform="translate(53.468 16.775)"><path class="d" d="M209.669,77.621C203.378,144.133,138.6,157.672,91.1,146.845c-23.351-5.321-34.848-24.264-37.159-43.584-1.456-12.177.049-26.658,8.16-36.519,6.974-8.48,18.385-11.664,28.654-14.247a111.412,111.412,0,0,0,32.191-14.147c15.8-9.987,38.166-29.052,58.249-19.707,29.475,13.719,28.651,38.94,28.651,38.94A122.608,122.608,0,0,1,209.669,77.621Z" transform="translate(-53.445 -16.134)"/><path class="e" d="M209.405,93.538c-6.275,92.956-70.891,111.879-118.285,96.747-23.3-7.438-34.765-33.914-37.068-60.917a33.3,33.3,0,0,1,9.123-13.444c11.488-9.749,26.113,13.959,26.113,13.959s.391-12.651,9.807-12.323c9.246.321,12.864,10.62,12.993,10.993-.194-.654-8.4-28.841,20.811-39.927,29.558-11.217,36.535,28.934,36.535,28.934S173.17,86.187,209.405,93.538Z" transform="translate(-53.372 -60.903)"/></g><g transform="translate(53.256 10.83)"><g class="f"><g transform="translate(6.775 -1.662)"><g class="g"><g transform="translate(0 -0.001)"><g class="g"><path class="h" d="M192.406,184.1l-93.34,20.722L71.726,81.674l93.34-20.722a13.054,13.054,0,0,1,15.573,9.914l21.682,97.665a13.054,13.054,0,0,1-9.914,15.573" transform="translate(-62.257 -52.634)"/><path class="b" d="M151.523,120.969,60.29,149.575,22.548,29.2,113.781.6a13.054,13.054,0,0,1,16.361,8.55l29.931,95.461a13.054,13.054,0,0,1-8.55,16.361" transform="translate(-19.571 0.004)"/><path class="i" d="M16.611,192.7,49.375,316.227l-12.637,3.352a5.34,5.34,0,0,1-6.531-3.792L.18,202.58a5.341,5.341,0,0,1,3.793-6.532Z" transform="translate(-0.001 -167.257)"/><g class="j" transform="translate(109.691 14.345)"><g class="k"><path d="M830.921,108.655l30.029,100.012a20.344,20.344,0,0,1-4.722,5.823c-3.17,2.678-25.308-105.835-25.308-105.835" transform="translate(-830.921 -108.656)"/></g></g><path class="l" d="M218.906,44.392l26.027,98.133a13.138,13.138,0,0,1-9.332,16.067l-77.012,20.426L125.825,55.486l77.012-20.426a13.14,13.14,0,0,1,16.068,9.331" transform="translate(-109.215 -30.048)"/><path class="m" d="M100.068,187.21l8.223-10.692,12.441,5.212-5.877-22.159L94.19,165.051Z" transform="translate(-81.756 -138.505)"/><g class="n" transform="translate(0 28.677)"><g class="o"><path class="p" d="M4.4,217.224,37.166,340.755l-.429.114a5.34,5.34,0,0,1-6.532-3.792L.18,223.87a5.341,5.341,0,0,1,3.793-6.532Z" transform="translate(0 -217.224)"/></g></g><g class="q" transform="translate(43.925 35.824)"><g class="r"><g class="s"><path class="b" d="M385.728,291.413a26.944,26.944,0,1,1-32.951-19.136,26.944,26.944,0,0,1,32.951,19.136" transform="translate(-332.734 -271.37)"/></g></g></g><g transform="matrix(0.966, -0.259, 0.259, 0.966, 52.561, 52.689)"><g class="t"><path class="c" d="M24.016,30.345a2.537,2.537,0,0,1-1.191-.3l-4.694-2.467a4.965,4.965,0,0,0-4.621,0L8.817,30.046a2.536,2.536,0,0,1-1.191.3,2.568,2.568,0,0,1-1.964-.922A2.509,2.509,0,0,1,5.1,27.348L5.522,24.9,6,22.121a4.962,4.962,0,0,0-1.428-4.395l-3.8-3.7A2.559,2.559,0,0,1,2.193,9.66L7.441,8.9a4.966,4.966,0,0,0,3.738-2.716l2.347-4.755a2.558,2.558,0,0,1,4.589,0l2.347,4.755A4.965,4.965,0,0,0,24.2,8.9l3.6.523,1.648.239a2.56,2.56,0,0,1,1.419,4.365l-3.8,3.7a4.964,4.964,0,0,0-1.428,4.395l.9,5.227a2.509,2.509,0,0,1-.557,2.075,2.569,2.569,0,0,1-1.964.922" transform="translate(0)"/><path class="c" d="M30.228,13.38l-3.8,3.7a5.342,5.342,0,0,0-1.536,4.728l.9,5.227a2.183,2.183,0,0,1-3.167,2.3l-4.694-2.467a5.342,5.342,0,0,0-4.971,0L8.266,29.336a2.183,2.183,0,0,1-3.167-2.3l.419-2.444.477-2.783a5.34,5.34,0,0,0-1.536-4.728l-3.8-3.7a2.183,2.183,0,0,1,1.21-3.723l5.247-.762a5.343,5.343,0,0,0,4.022-2.922l2.347-4.755a2.182,2.182,0,0,1,3.914,0l2.347,4.755a5.343,5.343,0,0,0,4.022,2.922l3.6.523,1.648.239a2.183,2.183,0,0,1,1.21,3.723" transform="translate(0.376 0.376)"/></g><g transform="translate(0.376 0.376)"><g class="u" transform="translate(0)"><path class="c" d="M0,0H28V24.592H0Z" transform="translate(-0.634 0)"/></g></g><g class="t"><path class="c" d="M2.985,3.47C2.263,5.053,1.138,6.091.472,5.787S-.15,3.954.572,2.37,2.418-.251,3.085.053s.622,1.833-.1,3.417" transform="translate(12.283 3.162)"/></g></g></g></g></g></g></g></g></g></g></svg>