<svg xmlns="http://www.w3.org/2000/svg" width="160" height="140" viewBox="0 0 160 140"><defs><style>.a{fill:#fff4ee;}.b{fill:#db5614;}.c{fill:#ffb200;}.d{fill:#f16f24;}.e{fill:#ff9e73;}.f{fill:#c2272e;}.g{fill:#fff;}</style></defs><g transform="translate(-656.298 -99.933)"><path class="a" d="M796.06,221.867c-18.042,18.49-99.948,17.946-115.52,3.517-20.655-19.143-34.187-86.032-14.82-104.993,28.925-28.315,132.345-26.321,146.664,5C821.3,144.826,814.854,202.58,796.06,221.867Z" transform="translate(-0.043 -0.349)"/><path class="b" d="M927.6,170.694l-2.659,58.744a12.013,12.013,0,0,1-1.76,5.964,6.954,6.954,0,0,1-4.419,3.234L841.2,254.444l-.036-8.084-.144-61.618c0-2.407,1.186-4.312,2.946-4.671l45.7-9.126,1.833-.359,31.078-6.216a2.724,2.724,0,0,1,.539-.036c1.725-.036,3.378,1.473,4.132,3.593a6.141,6.141,0,0,1,.4,1.832v.036C927.6,170.083,927.64,170.407,927.6,170.694Z" transform="translate(-125.051 -42.869)"/><path class="c" d="M1011.89,106.652a6.732,6.732,0,0,0-6.719,6.719,6.732,6.732,0,0,0-6.719-6.719,6.732,6.732,0,0,0,6.719-6.719A6.708,6.708,0,0,0,1011.89,106.652Z" transform="translate(-230.991 0)"/><path class="c" d="M981.421,474.33a9.951,9.951,0,0,0-9.952,9.952,9.951,9.951,0,0,0-9.952-9.952,9.952,9.952,0,0,0,9.952-9.952A9.952,9.952,0,0,0,981.421,474.33Z" transform="translate(-206.074 -244.35)"/><path class="c" d="M668.729,217.365a6.218,6.218,0,0,0-6.216,6.216,6.218,6.218,0,0,0-6.216-6.216,6.218,6.218,0,0,0,6.216-6.216A6.241,6.241,0,0,0,668.729,217.365Z" transform="translate(0 -74.589)"/><path class="d" d="M822.951,221.478l-21.169-64.1a5.307,5.307,0,0,0-5.972-3.7l-17.915,3.629a4.967,4.967,0,0,0-3.254,2.263l-5.256,8.407a6.48,6.48,0,0,1-4.148,2.874l-47.165,9.665a5.411,5.411,0,0,0-3.791,7.114l19.6,59.247a5.268,5.268,0,0,0,5.936,3.7l86.929-17.534c9.727-1.725,10.084-4.778,10.084-4.778C826.241,232.94,822.951,221.478,822.951,221.478Z" transform="translate(-38.87 -36.153)"/><path class="e" d="M1016.1,165.3l-2.443,56.515c-.072,1.4-.4,4.815-2.12,6.539a3.382,3.382,0,0,1-1.115.719,11.727,11.727,0,0,1-4.131.827,8.351,8.351,0,0,1-3.953-.971c-4.132-2.155-5.641-7.186-5.748-7.617L978.019,163.9l-2.012-6.252a5.039,5.039,0,0,0-3.916-3.772,18.186,18.186,0,0,1,2.515.647c1.617.683,2.587.754,3.162,2.515l2.084,6.5,18.5,57.235c0,.035,1.33,4.634,4.85,6.467a7.7,7.7,0,0,0,6.611.036,1.752,1.752,0,0,0,.5-.324c.862-.826,1.437-2.839,1.545-5.245l2.443-56.48a13.473,13.473,0,0,0-.826-4.778,11.073,11.073,0,0,0-1.186-2.12,5.488,5.488,0,0,0-.862-1.042,2.885,2.885,0,0,1,1.94.5,7.2,7.2,0,0,1,2.191,3.054,12.994,12.994,0,0,1,.4,1.833v.036A18.13,18.13,0,0,1,1016.1,165.3Z" transform="translate(-213.37 -36.345)"/><path class="f" d="M892.151,343.215a28.1,28.1,0,1,0-28.1-28.1A28.1,28.1,0,0,0,892.151,343.215Z" transform="translate(-167.935 -127.833)"/><path class="g" d="M910.182,333.152a4.6,4.6,0,0,0,0,6.479l5.711,5.743-5.563,5.595a4.6,4.6,0,0,0,0,6.478,4.539,4.539,0,0,0,6.443,0l5.564-5.594,5.563,5.594a4.539,4.539,0,0,0,6.444,0,4.6,4.6,0,0,0,0-6.478l-5.563-5.595,5.711-5.743a4.6,4.6,0,0,0,0-6.479,4.539,4.539,0,0,0-6.444,0l-5.711,5.743-5.712-5.743A4.539,4.539,0,0,0,910.182,333.152Z" transform="translate(-198.136 -158.086)"/></g></svg>