<svg xmlns="http://www.w3.org/2000/svg" xmlns:xlink="http://www.w3.org/1999/xlink" width="160" height="140" viewBox="0 0 160 140"><defs><style>.a{fill:none;}.b{fill:#f6ae5e;}.c{fill:#e6e7e8;}.d{fill:#d1d3d4;}.e{clip-path:url(#a);}.f{fill:#944d20;}.g{fill:#7f4a38;}.h{fill:#a65b26;}.i,.m{opacity:0.35;isolation:isolate;}.i{mix-blend-mode:multiply;}.j{clip-path:url(#b);}.k{clip-path:url(#c);}.l{fill:#44291d;}.m{mix-blend-mode:screen;}.n{clip-path:url(#d);}.o{clip-path:url(#e);}.p{fill:#ffb9aa;}.q{fill:#ba4127;}.r{fill:#ff6544;}.s{fill:#f2e1da;}.t{fill:#d48a55;}.u{fill:#7395b8;}.v{fill:#42391f;}.w{clip-path:url(#f);}.x{fill:url(#g);}.y{clip-path:url(#h);}.z{fill:#c7ac5f;}.aa{clip-path:url(#i);}.ab{fill:url(#j);}.ac{clip-path:url(#k);}.ad{clip-path:url(#l);}.ae{fill:url(#m);}.af{clip-path:url(#o);}.ag{fill:url(#p);}.ah{clip-path:url(#r);}.ai{fill:url(#s);}.aj{clip-path:url(#t);}.ak{fill:url(#u);}.al{fill:#f0d3c2;}.am{fill:#f2dbce;}.an{fill:#f2dcd0;}.ao{clip-path:url(#w);}.ap{fill:url(#x);}.aq{clip-path:url(#y);}.ar{fill:url(#z);}.as{clip-path:url(#aa);}.at{fill:url(#ab);}.au{clip-path:url(#ac);}.av{fill:url(#ad);}.aw{clip-path:url(#ae);}.ax{fill:url(#af);}.ay{clip-path:url(#ag);}.az{fill:url(#ah);}.ba{clip-path:url(#ai);}.bb{fill:url(#aj);}.bc{fill:#7fa0c4;}.bd{fill:#adcae6;}</style><clipPath id="a"><path class="a" d="M197.931,50.008s-3.274-32.2-29.123-44.77C154.952-1.5,132.7-1.737,132.7-1.737s-22.415-3.729-38.66,0C59.026,6.3,54.329,36.625,53.853,38.645c-.676,2.865,0,21.269,0,21.269s3.191.109.91,8.786-1.435,19.584-.91,24.023c2.135,18.066,12.76,35.78,34.34,40.755,43.9,10.124,103.764-2.537,109.577-64.731A116,116,0,0,0,197.931,50.008Z" transform="translate(-53.256 3.395)"/></clipPath><clipPath id="b"><rect class="b" width="7.157" height="146.239"/></clipPath><clipPath id="c"><rect class="a" width="7.157" height="146.239"/></clipPath><clipPath id="d"><rect class="a" width="177.608" height="1.734"/></clipPath><clipPath id="e"><rect class="a" width="177.005" height="2.512"/></clipPath><clipPath id="f"><path class="a" d="M141.514.057s2.875,3.877,2.875,7.655,3.877,4.646,6.551,4.717,4.345-1.006,3.2-5.438C153.09,2.9,146.407,0,142.441,0a6.6,6.6,0,0,0-.927.061" transform="translate(-141.514 0.004)"/></clipPath><linearGradient id="g" x1="-0.723" y1="11.775" x2="-0.717" y2="11.775" gradientUnits="objectBoundingBox"><stop offset="0" stop-color="#c2a148"/><stop offset="1" stop-color="#594815"/></linearGradient><clipPath id="h"><rect class="a" width="160.928" height="211.937"/></clipPath><clipPath id="i"><path class="a" d="M281.483,195.218c-6.256,3.209,1.15,3.744,3.6,3.81a25.266,25.266,0,0,1,6.831,1.378c-.418-4.725-3.522-6.087-6.394-6.087a9.328,9.328,0,0,0-4.031.9" transform="translate(-279.033 -194.319)"/></clipPath><linearGradient id="j" x1="-2.176" y1="11.893" x2="-2.167" y2="11.893" gradientUnits="objectBoundingBox"><stop offset="0" stop-color="#594815"/><stop offset="1" stop-color="#c2a148"/></linearGradient><clipPath id="k"><rect class="a" width="173.083" height="211.937"/></clipPath><clipPath id="l"><path class="a" d="M120.294,183.961c-3.677,1.961-4.011,11.975-4.011,11.975,2.34-1.19,3.677-3.381,5.549-5.294s4.412-2.447,4.546-3.985c.1-1.189-1.393-3.324-3.776-3.324a4.889,4.889,0,0,0-2.307.628" transform="translate(-116.283 -183.333)"/></clipPath><linearGradient id="m" x1="-0.625" y1="11.947" x2="-0.618" y2="11.947" gradientUnits="objectBoundingBox"><stop offset="0" stop-color="#c2a148"/><stop offset="1" stop-color="#4a3b0e"/></linearGradient><clipPath id="o"><path class="a" d="M277.325,115.244c.891,4.256,6.641-.78,8.423-1.315a6.569,6.569,0,0,0,2.273-.982,5.911,5.911,0,0,0-4.56-2.277q-.241-.02-.483-.02c-3.141,0-6.1,2.47-5.654,4.594" transform="translate(-277.281 -110.65)"/></clipPath><linearGradient id="p" x1="-2.115" y1="15.965" x2="-2.106" y2="15.965" xlink:href="#j"/><clipPath id="r"><path class="a" d="M92.724,108.295a18.886,18.886,0,0,0,2.569-.024,26.262,26.262,0,0,1,3.312-.012c2.864.167,6.021,1.419,7-.179s-3.305-3.536-6.03-3.993a2.352,2.352,0,0,0-.39-.031c-2.711,0-6.46,4.239-6.46,4.239" transform="translate(-92.724 -104.056)"/></clipPath><linearGradient id="s" x1="-2.502" y1="14.702" x2="-2.483" y2="14.702" xlink:href="#g"/><clipPath id="t"><path class="a" d="M186.77,300.713l1.738,13.059h13.827l1.738-13.059Z" transform="translate(-186.77 -300.713)"/></clipPath><linearGradient id="u" x1="-1.201" y1="13.667" x2="-1.195" y2="13.667" gradientUnits="objectBoundingBox"><stop offset="0" stop-color="#ebc8b4"/><stop offset="1" stop-color="#d9af98"/></linearGradient><clipPath id="w"><path class="a" d="M1172.2,96.583c-1.1.207-6.318,3.789-2.332,22.871.128,1.171.472.689.472.689.471-3.739.9-12.056,2.411-16.12,1.474-3.952.6-7.448-.46-7.449a.493.493,0,0,0-.091.009" transform="translate(-1168.385 -96.574)"/></clipPath><linearGradient id="x" x1="-4.87" y1="19.75" x2="-4.865" y2="19.75" gradientUnits="objectBoundingBox"><stop offset="0" stop-color="#999826"/><stop offset="1" stop-color="#383812"/></linearGradient><clipPath id="y"><path class="a" d="M1115.821,135.84c.714,1.429,2.244,2.62,3.95,5.954s4.148,8.514,4.148,8.514c-.417-5.656-2.278-13.15-4.763-14.945a5.3,5.3,0,0,0-2.72-1.248c-.91,0-1.051.851-.615,1.724" transform="translate(-1115.583 -134.116)"/></clipPath><linearGradient id="z" x1="-8.264" y1="10.83" x2="-8.257" y2="10.83" gradientUnits="objectBoundingBox"><stop offset="0" stop-color="#999826"/><stop offset="1" stop-color="#404014"/></linearGradient><clipPath id="aa"><path class="a" d="M1190.32,149.417a11.313,11.313,0,0,0-2.786,6.287l-.85,7.286a66.592,66.592,0,0,1,2.245-7.318c1.1-2.67,7.239-6.908,5.79-8.137a1.28,1.28,0,0,0-.852-.288,5.634,5.634,0,0,0-3.547,2.17" transform="translate(-1186.684 -147.247)"/></clipPath><linearGradient id="ab" x1="-6.973" y1="12.673" x2="-6.967" y2="12.673" xlink:href="#z"/><clipPath id="ac"><path class="a" d="M1084.822,173.841c-5.03.561-2,1.057,1.531,3.171a14.636,14.636,0,0,1,6.346,7.676c.122-2.97-2.658-10.873-7.4-10.874a4.348,4.348,0,0,0-.482.027" transform="translate(-1082.164 -173.814)"/></clipPath><linearGradient id="ad" x1="-6.842" y1="11.76" x2="-6.836" y2="11.76" gradientUnits="objectBoundingBox"><stop offset="0" stop-color="#b0af36"/><stop offset="1" stop-color="#4a4a17"/></linearGradient><clipPath id="ae"><path class="a" d="M1189.722,194.034s.655-4.882,6.788-7.593c2.55-1.127,4.347-3.125.417-3.125s-7.979,6.788-7.2,10.718" transform="translate(-1189.626 -183.317)"/></clipPath><linearGradient id="af" x1="-8.208" y1="12.141" x2="-8.201" y2="12.141" xlink:href="#ad"/><clipPath id="ag"><path class="a" d="M1075.249,225.267c2.628.88,5.958.035,8.107,1a7.74,7.74,0,0,1,3.174,2.581,8.4,8.4,0,0,0-7.359-6.117,8.679,8.679,0,0,0-1.011-.059c-3.193,0-5.294,1.8-2.911,2.6" transform="translate(-1074.223 -222.67)"/></clipPath><linearGradient id="ah" x1="-9.584" y1="12.87" x2="-9.575" y2="12.87" gradientUnits="objectBoundingBox"><stop offset="0" stop-color="#b0af36"/><stop offset="1" stop-color="#737223"/></linearGradient><clipPath id="ai"><path class="a" d="M1188.51,224.814a13.678,13.678,0,0,1,2.052-1.781c1.354-.986,4.867-1.322,7.122-1.536s3.257-2.671-.277-2.95q-.186-.015-.377-.015c-3.483,0-7.886,3.6-8.52,6.281" transform="translate(-1188.51 -218.533)"/></clipPath><linearGradient id="aj" x1="-9.445" y1="16.662" x2="-9.437" y2="16.662" xlink:href="#ah"/></defs><g transform="translate(5513 -7891)"><rect class="a" width="160" height="140" transform="translate(-5513 7891)"/><g transform="translate(-5558.256 7894.395)"><g transform="translate(53.445 16.134)"><path class="c" d="M197.77,71.391c-5.811,59.772-65.651,71.94-109.541,62.21C66.656,128.819,56.035,111.8,53.9,94.433c-1.345-10.943.045-23.956,7.538-32.819,6.443-7.621,16.984-10.482,26.472-12.8A104.407,104.407,0,0,0,117.649,36.1c14.6-8.975,35.259-26.109,53.813-17.71,27.231,12.329,26.469,34.994,26.469,34.994A107.192,107.192,0,0,1,197.77,71.391Z" transform="translate(-53.445 -16.134)"/><path class="d" d="M197.616,92.795C191.817,175.72,132.1,192.6,88.308,179.1c-21.529-6.635-32.127-30.254-34.256-54.344a29.674,29.674,0,0,1,8.431-11.993c10.616-8.7,24.131,12.453,24.131,12.453s.361-11.286,9.063-10.993c8.544.286,11.888,9.474,12.007,9.807-.18-.583-7.767-25.729,19.232-35.619,27.315-10.007,33.763,25.812,33.763,25.812S164.131,86.237,197.616,92.795Z" transform="translate(-53.445 -62.799)"/></g><g transform="translate(53.256 -3.395)"><g class="e"><g transform="translate(30.558 1.796)"><g transform="translate(0 46.524)"><rect class="f" width="189.762" height="5.023"/><rect class="g" width="189.762" height="5.023" transform="translate(0 160.39)"/><rect class="b" width="176.255" height="155.367" transform="translate(6.754 5.023)"/><rect class="h" width="166.437" height="146.239" transform="translate(11.663 9.587)"/><g class="i" transform="translate(10.844 9.587)"><g class="j"><rect class="b" width="7.157" height="146.239" transform="translate(0 0)"/></g></g><g class="i" transform="translate(119.557 9.587)"><g class="k"><rect class="l" width="7.157" height="146.239" transform="translate(0 0)"/></g></g><rect class="b" width="166.437" height="5.023" transform="translate(11.663 42.38)"/><rect class="b" width="166.437" height="5.023" transform="translate(11.663 80.195)"/><rect class="b" width="166.437" height="5.023" transform="translate(11.663 118.011)"/><g class="m" transform="translate(0 160.39)"><g class="n"><rect class="g" width="177.607" height="1.734" transform="translate(0 0)"/></g></g><rect class="b" width="4.909" height="155.367" transform="translate(123.035 5.023)"/><g class="i" transform="translate(6.279 5.023)"><g class="o"><rect class="g" width="177.006" height="2.512" transform="translate(0 0)"/></g></g></g><g transform="translate(0.001 0)"><path class="p" d="M0,0,.539.02.6,1.7l-.539-.02Z" transform="translate(79.42 27.477) rotate(-48.194)"/><path class="q" d="M668.116,388.19l-2.477,2.967h-2.525l3.189-3.8Z" transform="translate(-589.321 -344.246)"/><path class="q" d="M756.669,388.19l2.477,2.967h2.525l-3.189-3.8Z" transform="translate(-672.464 -344.246)"/><g transform="translate(19.095 10.748)"><path class="r" d="M664.489,240.769a9.711,9.711,0,1,1-7.658-9.5,9.717,9.717,0,0,1,7.658,9.5" transform="translate(-592.367 -216.088)"/><path class="s" d="M676.672,254.694a7.972,7.972,0,1,1-7.972-7.972,7.972,7.972,0,0,1,7.972,7.972" transform="translate(-606.293 -230.013)"/><path class="t" d="M717.988,219.333a9.765,9.765,0,0,0-4.117,0,2.093,2.093,0,0,1,4.117,0" transform="translate(-653.523 -204.148)"/><path class="r" d="M645.566,229.644a2.758,2.758,0,0,1,3.785-3.785Z" transform="translate(-592.366 -211.018)"/><path class="r" d="M784.858,229.644a2.758,2.758,0,0,0-3.786-3.785Z" transform="translate(-713.246 -211.018)"/><rect class="g" width="0.522" height="1.761" transform="translate(62.145 17.462)"/><rect class="g" width="0.522" height="1.761" transform="matrix(0.866, -0.5, 0.5, 0.866, 58.57, 18.56)"/><rect class="g" width="0.522" height="1.761" transform="translate(56.023 21.297) rotate(-60.001)"/><rect class="g" width="1.761" height="0.522" transform="translate(55.187 24.421)"/><rect class="g" width="1.761" height="0.522" transform="translate(56.023 28.065) rotate(-30.006)"/><rect class="g" width="1.761" height="0.522" transform="translate(58.57 30.803) rotate(-59.995)"/><rect class="g" width="0.522" height="1.761" transform="translate(62.145 30.14)"/><rect class="g" width="0.522" height="1.761" transform="translate(64.91 29.539) rotate(-29.999)"/><rect class="g" width="0.522" height="1.761" transform="translate(67.003 27.637) rotate(-60.001)"/><rect class="g" width="1.761" height="0.522" transform="translate(67.865 24.421)"/><rect class="g" width="1.761" height="0.522" transform="matrix(0.866, -0.5, 0.5, 0.866, 67.003, 21.726)"/><rect class="g" width="1.761" height="0.522" transform="translate(64.91 19.823) rotate(-59.995)"/><path class="u" d="M675.323,320.621a.261.261,0,0,1-.261-.261V316.54h-6.622a.261.261,0,0,1,0-.522h6.882a.261.261,0,0,1,.261.261v4.082a.261.261,0,0,1-.261.261" transform="translate(-612.917 -291.597)"/><path class="t" d="M727.2,312.452a.74.74,0,1,1-.74-.74.74.74,0,0,1,.74.74" transform="translate(-664.051 -287.771)"/><path class="v" d="M190.4,146.367c-.625-5.013-2.214-11.891-5.928-15.5a7.772,7.772,0,0,0-1.942-1.353.2.2,0,0,1,.165-.358,8.193,8.193,0,0,1,2.084,1.377,17,17,0,0,1,4,6.21,41.117,41.117,0,0,1,2.493,9.525.437.437,0,1,1-.869.1" transform="translate(-181.207 -125.518)"/><path class="v" d="M179.648,223.66c-.333-2.623-2.831-5.225-5.175-6.3a5.491,5.491,0,0,0-2.744-.531.131.131,0,0,1-.029-.261,5.789,5.789,0,0,1,2.909.478,10.325,10.325,0,0,1,5.2,5.079,5.514,5.514,0,0,1,.417,1.469.292.292,0,1,1-.58.062" transform="translate(-171.585 -203.188)"/><path class="v" d="M268.051,214.576c.944-3.783.629-7.694,5.406-8.554a.131.131,0,0,1,.052.257,5.918,5.918,0,0,0-2.394,1.042c-1.44,1.117-1.744,3-2.028,4.708-.143.887-.277,1.784-.467,2.676a.292.292,0,1,1-.568-.13" transform="translate(-257.308 -193.841)"/><path class="v" d="M241.243,118.321c.717-6.829,1.811-15.484-2.33-21.435a.2.2,0,0,1,.317-.234,15.258,15.258,0,0,1,2.4,5.066,35.168,35.168,0,0,1,.9,11.126c-.089,1.85-.284,3.71-.421,5.548a.437.437,0,1,1-.872-.071" transform="translate(-231.388 -96.574)"/><path class="v" d="M251.736,166.693c.461-5.036-.737-10.77,3.2-14.751a12.616,12.616,0,0,1,1.683-1.451.164.164,0,0,1,.194.264A10.1,10.1,0,0,0,252.669,158c-.341,2.9,0,5.829-.206,8.753a.364.364,0,1,1-.727-.056" transform="translate(-242.816 -144.463)"/></g><g class="w" transform="translate(15.748)"><rect class="x" width="18.508" height="18.243" transform="translate(-5.979 4.427) rotate(-36.516)"/></g><g class="y" transform="translate(0)"><path class="z" d="M199.661,47.449a18.766,18.766,0,0,0-5.883-6.839,9.491,9.491,0,0,1,5.883,6.839" transform="translate(-172.214 -36.09)"/></g><g class="aa" transform="translate(33.397 21.625)"><path class="ab" d="M0,0,13.444.438l.547,17.351L.547,17.351Z" transform="translate(-6.688 4.485) rotate(-59.133)"/></g><g class="ac" transform="translate(0)"><path class="z" d="M301.78,208.133a17.617,17.617,0,0,0-8.523-3.372c-.085-.009-.262-.02-.348-.022-.466-.036-.933-.018-1.411-.016,3.721-1.05,7.914.688,10.282,3.41" transform="translate(-256.609 -181.665)"/></g><g class="ad" transform="translate(12.941 20.402)"><rect class="ae" width="16.036" height="16.181" transform="matrix(0.736, -0.676, 0.676, 0.736, -6.279, 5.768)"/></g><g class="y" transform="translate(0)"><path class="z" d="M147.664,208.2c-1.43-.342-2.732.561-3.715,1.51a12.728,12.728,0,0,0-2.435,3.5,6.413,6.413,0,0,1,.69-2.112,6.278,6.278,0,0,1,3.246-3.044,2.547,2.547,0,0,1,2.214.141" transform="translate(-125.766 -184.743)"/></g><g class="af" transform="translate(30.857 12.314)"><rect class="ag" width="13.78" height="12.62" transform="matrix(0.913, -0.407, 0.407, 0.913, -3.692, 1.468)"/></g><g class="y" transform="translate(0)"><path class="z" d="M284.89,126.793c2.373-2.673,4.881-4.553,8.613-3.356a8.29,8.29,0,0,1,1.281.547c-.454-.095-.9-.2-1.349-.269a7.863,7.863,0,0,0-6.3,1.49c-.748.508-1.463,1.095-2.25,1.588" transform="translate(-253.186 -109.372)"/></g><g class="ah" transform="translate(10.319 11.58)"><rect class="ai" width="5.745" height="13.91" transform="translate(-0.05 5.622) rotate(-89.493)"/></g><g class="aj" transform="translate(20.784 33.465)"><rect class="ak" width="17.304" height="13.059" transform="translate(0)"/></g><g class="y" transform="translate(0)"><path class="al" d="M190.656,274.065H170.512l-.437-4.591h21.019Z" transform="translate(-151.148 -239.486)"/><path class="am" d="M198.852,324.3l1.353,9.471h-.674l-1.2-9.471Z" transform="translate(-176.261 -288.206)"/><path class="an" d="M178.867,277.4l-.373-3.622h.445l.517,3.612Z" transform="translate(-158.63 -243.312)"/></g><g class="ao" transform="translate(130.023 10.748)"><rect class="ap" width="24.524" height="9.826" transform="translate(-4.005 23.957) rotate(-86.424)"/></g><g class="aq" transform="translate(124.147 14.925)"><rect class="ar" width="14.629" height="18.286" transform="translate(-6.449 2.95) rotate(-25.266)"/></g><g class="as" transform="translate(132.059 16.387)"><rect class="at" width="18.306" height="15.419" transform="translate(-6.197 12.726) rotate(-64.037)"/></g><g class="au" transform="translate(120.427 19.343)"><rect class="av" width="16.966" height="16.62" transform="matrix(0.783, -0.622, 0.622, 0.783, -7.669, 4.213)"/></g><g class="aw" transform="translate(132.386 20.401)"><rect class="ax" width="15.808" height="15.994" transform="matrix(0.625, -0.781, 0.781, 0.625, -5.906, 6.535)"/></g><g class="ay" transform="translate(119.544 24.78)"><rect class="az" width="12.397" height="14.88" transform="translate(-4.107 4.496) rotate(-58.561)"/></g><g class="ba" transform="translate(132.262 24.32)"><rect class="bb" width="13.924" height="11.415" transform="translate(-2.618 1.406) rotate(-28.232)"/></g><g transform="translate(119.245 28.834)"><path class="u" d="M1109.46,296.906l-1.35,13.377h-18l-1.349-13.377Z" transform="translate(-1086.845 -292.698)"/><rect class="bc" width="24.531" height="5.398" transform="translate(0 0)"/><path class="bd" d="M1100.218,314.72l.778,10.418-.375.036-1.235-10.374Z" transform="translate(-1096.287 -308.53)"/><path class="bd" d="M1079.8,263.636l.172,4.312h-.627l.172-4.312Z" transform="translate(-1078.479 -263.131)"/></g></g></g></g></g></g></g></svg>