<svg xmlns="http://www.w3.org/2000/svg" width="160" height="140" viewBox="0 0 160 140"><defs><style>.a{fill:#fff;}.b{fill:#e6651a;}.c{fill:#db5614;}.d{fill:#f16f24;}.e{fill:#fe843e;}.f{fill:#ececec;}.g{fill:#efefef;}.h{fill:#dcdcdc;}.i{fill:#d1d1d1;}.j{fill:#ffb200;}.k{fill:#c2272e;}</style></defs><g transform="translate(-656.298 -99.933)"><path class="a" d="M796.06,221.867c-18.042,18.49-99.948,17.946-115.52,3.517-20.655-19.143-34.187-86.032-14.82-104.993,28.925-28.315,132.345-26.321,146.664,5C821.3,144.826,814.854,202.58,796.06,221.867Z" transform="translate(-0.043 -0.349)"/><g transform="translate(684.601 116.612)"><path class="b" d="M15.754,133.909,64.23,158.147l48.476-24.238v51.708L64.23,209.854,15.754,185.616Z" transform="translate(-12.522 -106.438)"/><path class="c" d="M15.754,157.538v15.108l48.314,23.672,48.637-23.753V157.538L64.23,181.291Z" transform="translate(-12.522 -125.22)"/><path class="d" d="M64.23,216.115V164.408L18.986,141.786H15.754v50.092Z" transform="translate(-12.522 -112.699)"/><path class="c" d="M15.754,157.538v15.108l48.314,23.672.162-.081V181.291Z" transform="translate(-12.522 -125.22)"/><path class="e" d="M0,25.774,51.708,0l51.708,25.773v3.393L51.708,54.94,0,29.248Z"/><path class="f" d="M162.752,20.682c-1.7-3.07-5.332-4.928-9.614-4.928-9.776,0-16.643,9.13-20.037,14.947-3.393-5.817-10.341-14.866-20.037-14.866-6.221,0-10.665,3.8-10.665,8.968,0,9.21,10.1,15.189,30.378,15.189S163.8,32.317,163.8,24.884A8.532,8.532,0,0,0,162.752,20.682ZM115.165,30.62c-2.262-1.535-3.07-3.232-3.07-4.363,0-1.373,1.293-2.424,3.151-2.424,4.363,0,7.837,5.736,9.776,9.7A20.86,20.86,0,0,1,115.165,30.62Zm35.872,0c-1.778,1.131-4.767,2.5-9.857,2.908,1.858-3.959,5.332-9.7,9.776-9.7,1.858,0,3.151,1.05,3.151,2.424C154.107,27.388,153.3,29.085,151.037,30.62Z" transform="translate(-81.393 -12.521)"/><path class="d" d="M0,126.032,51.708,151.32l51.708-25.288v16.724L51.546,168.044,0,142.756Z" transform="translate(0 -100.177)"/><path class="g" d="M146.232,117.126v-1.858l-19.39-10.5-19.39,10.5v1.858l-12.927-5.655v-2.585l31.671-16.724.646.323.646-.323L159.158,108.8v2.585Z" transform="translate(-75.133 -73.254)"/><path class="h" d="M346.585,179.757v51.627l12.927-6.464V173.293Z" transform="translate(-275.487 -137.743)"/><path class="i" d="M94.523,225l12.927,6.464V179.837l-12.927-6.544Z" transform="translate(-75.133 -137.743)"/></g><path class="j" d="M1011.89,106.652a6.732,6.732,0,0,0-6.719,6.719,6.732,6.732,0,0,0-6.719-6.719,6.732,6.732,0,0,0,6.719-6.719A6.708,6.708,0,0,0,1011.89,106.652Z" transform="translate(-230.991 0)"/><path class="j" d="M981.421,474.33a9.951,9.951,0,0,0-9.952,9.952,9.951,9.951,0,0,0-9.952-9.952,9.952,9.952,0,0,0,9.952-9.952A9.952,9.952,0,0,0,981.421,474.33Z" transform="translate(-206.074 -244.35)"/><path class="j" d="M668.729,217.365a6.218,6.218,0,0,0-6.216,6.216,6.218,6.218,0,0,0-6.216-6.216,6.218,6.218,0,0,0,6.216-6.216A6.241,6.241,0,0,0,668.729,217.365Z" transform="translate(0 -74.589)"/><path class="k" d="M887.579,334.071a23.531,23.531,0,1,0-23.531-23.531A23.531,23.531,0,0,0,887.579,334.071Z" transform="translate(-176.935 -105.689)"/><path class="a" d="M909.965,332.933a3.851,3.851,0,0,0,0,5.425l4.782,4.809-4.658,4.685a3.851,3.851,0,0,0,0,5.424,3.8,3.8,0,0,0,5.4,0l4.658-4.684,4.658,4.684a3.8,3.8,0,0,0,5.4,0,3.85,3.85,0,0,0,0-5.424l-4.658-4.685,4.782-4.809a3.851,3.851,0,0,0,0-5.425,3.8,3.8,0,0,0-5.4,0l-4.782,4.809-4.783-4.809A3.8,3.8,0,0,0,909.965,332.933Z" transform="translate(-209.512 -138.308)"/></g></svg>