<svg xmlns="http://www.w3.org/2000/svg" width="160" height="135" viewBox="0 0 160 135">
  <g id="Group_1710714" data-name="Group 1710714" transform="translate(-624 -385)">
    <g id="Group_1710746" data-name="Group 1710746">
      <path id="Path_1823273" data-name="Path 1823273" d="M796.079,221.379c-18.045,18.416-99.961,17.874-115.535,3.5-20.658-19.066-34.192-85.687-14.822-104.572C694.65,92.109,798.084,94.1,812.4,125.294,821.319,144.648,814.875,202.17,796.079,221.379Z" transform="translate(-32.362 284.549)" fill="#fff"/>
      <path id="Path_1823275" data-name="Path 1823275" d="M1011.891,106.625a6.719,6.719,0,0,0-6.72,6.692,6.719,6.719,0,0,0-6.72-6.692,6.719,6.719,0,0,0,6.72-6.692A6.7,6.7,0,0,0,1011.891,106.625Z" transform="translate(-272.721 306.545)" fill="#ffb200"/>
      <path id="Path_1823277" data-name="Path 1823277" d="M668.731,217.34a6.206,6.206,0,0,0-6.216,6.191,6.206,6.206,0,0,0-6.217-6.191,6.206,6.206,0,0,0,6.217-6.191A6.229,6.229,0,0,0,668.731,217.34Z" transform="translate(8.297 182.948)" fill="#ffb200"/>
      <g id="Group_1710712" data-name="Group 1710712" transform="translate(654.337 386.992)">
        <g id="Group_1710633" data-name="Group 1710633" transform="translate(49.121 42.048)">
          <g id="Group_1710632" data-name="Group 1710632">
            <path id="Path_1823349" data-name="Path 1823349" d="M78.294,69.859l-24.573,14.1-.1-30.71L26.016,37.263l24.573-14.1L78.2,39.148Z" transform="translate(-26.016 -23.159)" fill="#dedffb"/>
          </g>
        </g>
        <g id="Group_1710635" data-name="Group 1710635" transform="translate(24.515 36.393)">
          <g id="Group_1710634" data-name="Group 1710634">
            <path id="Path_1823350" data-name="Path 1823350" d="M70.786,87.877l-24.54,14.137-.131-36.56L18.509,49.5l-.033-13.974,24.572-14.1L70.656,37.376l.033,19.791Z" transform="translate(-18.476 -21.419)" fill="#57b3fe"/>
          </g>
        </g>
        <g id="Group_1710637" data-name="Group 1710637" transform="translate(58.738 0.04)">
          <g id="Group_1710636" data-name="Group 1710636" transform="translate(0)">
            <path id="Path_1823351" data-name="Path 1823351" d="M46.342,3.914v.749a23.393,23.393,0,0,1-.967,6.417,33.841,33.841,0,0,1-2.685,6.567,37.834,37.834,0,0,1-9.15,11.273l-.279-1.3L30.726,26.16C36.5,21.433,40.843,14.331,42.089,7.85l-7.668,4.406V10.78L31.886,9.3,43.807,2.459Z" transform="translate(-30.726 -2.459)" fill="#ffde9b"/>
          </g>
        </g>
        <g id="Group_1710672" data-name="Group 1710672" transform="translate(0 36.382)">
          <g id="Group_1710670" data-name="Group 1710670">
            <g id="Group_1710664" data-name="Group 1710664">
              <g id="Group_1710643" data-name="Group 1710643" transform="translate(49.131 5.658)">
                <g id="Group_1710640" data-name="Group 1710640">
                  <g id="Group_1710638" data-name="Group 1710638">
                    <path id="Path_1823352" data-name="Path 1823352" d="M53.633,53.256,26.019,37.276,50.575,23.157,78.188,39.138Z" transform="translate(-26.019 -23.157)" fill="#dd8a38"/>
                  </g>
                </g>
                <g id="Group_1710642" data-name="Group 1710642" transform="translate(27.613 15.981)">
                  <g id="Group_1710641" data-name="Group 1710641">
                    <path id="Path_1823354" data-name="Path 1823354" d="M59.037,28.075l.087,30.712L34.569,72.905l-.087-30.712Z" transform="translate(-34.481 -28.075)" fill="#cd7f32"/>
                  </g>
                </g>
              </g>
              <g id="Group_1710653" data-name="Group 1710653" transform="translate(24.516)">
                <g id="Group_1710645" data-name="Group 1710645" transform="translate(0.04 28.077)">
                  <g id="Group_1710644" data-name="Group 1710644">
                    <path id="Path_1823355" data-name="Path 1823355" d="M46.206,82.568,18.593,66.587l-.1-36.531L46.1,46.036Z" transform="translate(-18.489 -30.056)" fill="#6b6e79"/>
                  </g>
                </g>
                <g id="Group_1710647" data-name="Group 1710647" transform="translate(0 14.12)">
                  <g id="Group_1710646" data-name="Group 1710646">
                    <path id="Path_1823356" data-name="Path 1823356" d="M46.13,55.7,18.516,39.718l-.04-13.957L46.09,41.742Z" transform="translate(-18.476 -25.761)" fill="#ffbd00"/>
                  </g>
                </g>
                <g id="Group_1710650" data-name="Group 1710650">
                  <g id="Group_1710648" data-name="Group 1710648">
                    <path id="Path_1823357" data-name="Path 1823357" d="M46.09,51.517,18.476,35.536l24.558-14.12L70.648,37.4Z" transform="translate(-18.476 -21.416)" fill="#ffd06c"/>
                  </g>
                </g>
                <g id="Group_1710652" data-name="Group 1710652" transform="translate(27.613 15.981)">
                  <g id="Group_1710651" data-name="Group 1710651">
                    <path id="Path_1823359" data-name="Path 1823359" d="M51.5,26.334l.056,19.776.087,30.712L27.082,90.942l-.1-36.531-.04-13.957Z" transform="translate(-26.938 -26.334)" fill="#ffd200"/>
                  </g>
                </g>
              </g>
              <g id="Group_1710663" data-name="Group 1710663" transform="translate(0 28.077)">
                <g id="Group_1710655" data-name="Group 1710655" transform="translate(0.008 0.012)">
                  <g id="Group_1710654" data-name="Group 1710654">
                    <path id="Path_1823360" data-name="Path 1823360" d="M63.244,82.576,38.671,96.68,11.064,80.691l-.1-36.527,24.54-14.1L63.113,46.016Z" transform="translate(-10.966 -30.059)" fill="#f45170"/>
                  </g>
                </g>
                <g id="Group_1710657" data-name="Group 1710657" transform="translate(0 14.119)">
                  <g id="Group_1710656" data-name="Group 1710656">
                    <path id="Path_1823361" data-name="Path 1823361" d="M38.681,86.912,11.068,70.931l-.1-36.531L38.577,50.381Z" transform="translate(-10.964 -34.4)" fill="#aaaaad"/>
                  </g>
                </g>
                <g id="Group_1710660" data-name="Group 1710660">
                  <g id="Group_1710658" data-name="Group 1710658">
                    <path id="Path_1823362" data-name="Path 1823362" d="M38.577,60.155,10.964,44.174,35.519,30.056,63.133,46.036Z" transform="translate(-10.964 -30.056)" fill="#d0cfcf"/>
                  </g>
                </g>
                <g id="Group_1710662" data-name="Group 1710662" transform="translate(27.614 15.981)">
                  <g id="Group_1710661" data-name="Group 1710661">
                    <path id="Path_1823364" data-name="Path 1823364" d="M43.981,34.973l.1,36.531L19.53,85.623l-.1-36.531Z" transform="translate(-19.426 -34.973)" fill="silver"/>
                  </g>
                </g>
              </g>
            </g>
            <g id="Group_1710669" data-name="Group 1710669" transform="translate(34.357 32.749)">
              <g id="Group_1710668" data-name="Group 1710668">
                <g id="Group_1710665" data-name="Group 1710665" transform="translate(0 25.464)">
                  <path id="Path_1823365" data-name="Path 1823365" d="M24.737,56.558a9.4,9.4,0,0,0-1.1,2.118l7.92-4.553a.707.707,0,0,1,.715-.076.686.686,0,0,1,.293.652,1.865,1.865,0,0,1-.289.974,2.006,2.006,0,0,1-.715.731l-8.825,5.076a.924.924,0,0,1-.886.121.823.823,0,0,1-.354-.8,7.157,7.157,0,0,1,.7-2.932,19.341,19.341,0,0,1,1.689-3.012c.662-.962,1.541-2.171,2.613-3.587.924-1.212,1.67-2.22,2.214-3a16.59,16.59,0,0,0,1.362-2.326,4.907,4.907,0,0,0,.54-2.076c0-.981-.293-1.606-.856-1.86s-1.491-.015-2.743.7a16.674,16.674,0,0,0-3.9,3.186,1.74,1.74,0,0,1-.445.386.614.614,0,0,1-.631.068.627.627,0,0,1-.262-.6,1.968,1.968,0,0,1,.514-1.288A20.006,20.006,0,0,1,27.369,40.2a5.7,5.7,0,0,1,2.674-.867,2.365,2.365,0,0,1,1.913.784,3.551,3.551,0,0,1,.708,2.386,8.236,8.236,0,0,1-.784,3.337A22.1,22.1,0,0,1,30,49.247c-.727,1.08-1.689,2.405-2.857,3.951-1.061,1.428-1.871,2.557-2.4,3.36Z" transform="translate(-21.492 -39.329)" fill="#fff"/>
                </g>
                <g id="Group_1710666" data-name="Group 1710666" transform="translate(49.04 0.475)">
                  <path id="Path_1823366" data-name="Path 1823366" d="M47.856,43.1A7.9,7.9,0,0,1,46.2,47.8a13.613,13.613,0,0,1-4.272,3.788,12.431,12.431,0,0,1-4.793,1.7.506.506,0,0,1-.445-.133.719.719,0,0,1-.167-.534,1.97,1.97,0,0,1,.266-.947,1.792,1.792,0,0,1,.669-.72,1.108,1.108,0,0,1,.441-.148,9.666,9.666,0,0,0,3.629-1.33,11.934,11.934,0,0,0,3-2.386,4.3,4.3,0,0,0,1.2-2.909c0-1.083-.426-1.667-1.259-1.731a7.627,7.627,0,0,0-3.777,1.352l-.369.208a.66.66,0,0,1-.692.064.653.653,0,0,1-.293-.621,2.177,2.177,0,0,1,.981-1.693l.137-.08a12.354,12.354,0,0,0,3.484-2.8,4.8,4.8,0,0,0,1.191-3.034c0-.822-.308-1.311-.909-1.447a4.245,4.245,0,0,0-2.686.814A14.573,14.573,0,0,0,38,38.114a2.025,2.025,0,0,1-.422.348.625.625,0,0,1-.612.072.576.576,0,0,1-.262-.564,1.842,1.842,0,0,1,.468-1.186,17.429,17.429,0,0,1,4.534-3.947c1.754-1.008,3.127-1.383,4.089-1.114s1.457,1.167,1.461,2.671a6.981,6.981,0,0,1-.787,3.315,10.942,10.942,0,0,1-1.91,2.606,3.042,3.042,0,0,1,2.259.117c.685.333,1.031,1.227,1.035,2.663Z" transform="translate(-36.52 -31.64)" fill="#fff"/>
                </g>
                <g id="Group_1710667" data-name="Group 1710667" transform="translate(25.494)">
                  <path id="Path_1823367" data-name="Path 1823367" d="M38.563,46.337a1.9,1.9,0,0,1-.289.974,2.035,2.035,0,0,1-.715.731L30.5,52.1a.7.7,0,0,1-.7.083.673.673,0,0,1-.285-.644,1.982,1.982,0,0,1,.278-.977,1.894,1.894,0,0,1,.7-.739l2.7-1.553-.038-13.2-2.294,2.61a2.481,2.481,0,0,1-.536.47.6.6,0,0,1-1.012-.572,2.214,2.214,0,0,1,.6-1.451l3.1-3.644a2.679,2.679,0,0,1,.654-.561l.479-.277a.774.774,0,0,1,.8-.08.763.763,0,0,1,.331.72l.042,14.758,2.24-1.288a.707.707,0,0,1,.715-.076.69.69,0,0,1,.293.652Z" transform="translate(-29.305 -31.494)" fill="#fff"/>
                </g>
              </g>
            </g>
          </g>
        </g>
        <g id="Group_1710707" data-name="Group 1710707" transform="translate(27.034 0)">
          <g id="Group_1710683" data-name="Group 1710683" transform="translate(31.714 0.04)">
            <g id="Group_1710674" data-name="Group 1710674" transform="translate(0 23.702)">
              <g id="Group_1710673" data-name="Group 1710673">
                <path id="Path_1823369" data-name="Path 1823369" d="M33.529,16.3,31,14.837l-.273-1.3L33.256,15Z" transform="translate(-30.731 -13.54)" fill="#e5bd13"/>
              </g>
            </g>
            <g id="Group_1710676" data-name="Group 1710676" transform="translate(0 2.239)">
              <g id="Group_1710675" data-name="Group 1710675">
                <path id="Path_1823370" data-name="Path 1823370" d="M33.256,26.431,30.731,24.97C37.453,19.467,42.2,10.751,42.5,3.506l2.525,1.461C44.728,12.213,39.979,20.928,33.256,26.431Z" transform="translate(-30.731 -3.506)" fill="#f3a250"/>
              </g>
            </g>
            <g id="Group_1710678" data-name="Group 1710678" transform="translate(1.156 6.852)">
              <g id="Group_1710677" data-name="Group 1710677">
                <path id="Path_1823371" data-name="Path 1823371" d="M33.8,8.608,31.273,7.146l0-1.484,2.525,1.461Z" transform="translate(-31.269 -5.663)" fill="#e5bd13"/>
              </g>
            </g>
            <g id="Group_1710680" data-name="Group 1710680" transform="translate(1.157)">
              <g id="Group_1710679" data-name="Group 1710679">
                <path id="Path_1823372" data-name="Path 1823372" d="M33.794,10.773,31.269,9.311,43.187,2.459l2.525,1.461Z" transform="translate(-31.269 -2.459)" fill="#ffde9b"/>
              </g>
            </g>
            <g id="Group_1710682" data-name="Group 1710682" transform="translate(2.525 1.461)">
              <g id="Group_1710681" data-name="Group 1710681">
                <path id="Path_1823373" data-name="Path 1823373" d="M44.98,3.143l0,.742a23.261,23.261,0,0,1-.962,6.428A37.465,37.465,0,0,1,32.18,28.142l-.273-1.3c6.723-5.5,11.472-14.218,11.765-21.464l-10.6,6.1,0-1.484Z" transform="translate(-31.906 -3.143)" fill="#ffd06c"/>
              </g>
            </g>
          </g>
          <g id="Group_1710689" data-name="Group 1710689" transform="translate(9.807 38.31)">
            <g id="Group_1710688" data-name="Group 1710688">
              <g id="Group_1710685" data-name="Group 1710685" transform="translate(0 7.206)">
                <g id="Group_1710684" data-name="Group 1710684">
                  <path id="Path_1823374" data-name="Path 1823374" d="M45.644,23.79l-.007,2.941c-.005,1.841-1.22,3.679-3.648,5.084-4.885,2.827-12.834,2.829-17.753,0-2.474-1.422-3.709-3.29-3.7-5.155l.007-2.941c-.005,1.865,1.23,3.733,3.7,5.155C29.162,31.7,37.111,31.7,42,28.874c2.427-1.4,3.643-3.243,3.648-5.084Z" transform="translate(-20.532 -23.719)" fill="#febc1f"/>
                </g>
              </g>
              <g id="Group_1710687" data-name="Group 1710687" transform="translate(0.007)">
                <g id="Group_1710686" data-name="Group 1710686">
                  <path id="Path_1823375" data-name="Path 1823375" d="M41.934,22.471c4.918,2.828,4.944,7.412.058,10.24s-12.834,2.829-17.753,0S19.3,25.3,24.183,22.471s12.834-2.827,17.751,0Z" transform="translate(-20.536 -20.351)" fill="#ffd06c"/>
                </g>
              </g>
            </g>
          </g>
          <g id="Group_1710691" data-name="Group 1710691" transform="translate(14.552 35.125)">
            <g id="Group_1710690" data-name="Group 1710690">
              <path id="Path_1823376" data-name="Path 1823376" d="M37.955,28.94a5,5,0,0,1-1.793,1.6,12.328,12.328,0,0,1-11.175,0,4.694,4.694,0,0,1-2.094-2.119,2.268,2.268,0,0,1,.1-1.835l.653-1.468a17.453,17.453,0,0,0,1.34-6.257H36.028a11.911,11.911,0,0,0,1.106,5.957h.017c.234.534.5,1.068.787,1.619a2.4,2.4,0,0,1,.017,2.5Z" transform="translate(-22.741 -18.862)" fill="#f9a83d"/>
            </g>
          </g>
          <g id="Group_1710692" data-name="Group 1710692" transform="translate(4.13 10.614)">
            <path id="Path_1823377" data-name="Path 1823377" d="M40.04,39.272c-.017,0-.017,0-.034.017a11.338,11.338,0,0,1-7.607.05C17.538,34.1,17.89,7.4,17.89,7.4l3.2.017L36.119,7.5l18.246-.1S54.7,33.883,40.04,39.272Z" transform="translate(-17.889 -7.403)" fill="#febc1f"/>
          </g>
          <g id="Group_1710693" data-name="Group 1710693" transform="translate(4.127)">
            <path id="Path_1823378" data-name="Path 1823378" d="M48.977,5.522c7.145,4.108,7.182,10.769.083,14.877s-18.645,4.108-25.79,0S16.088,9.63,23.187,5.522s18.646-4.108,25.791,0Z" transform="translate(-17.888 -2.441)" fill="#ffde9b"/>
          </g>
          <g id="Group_1710696" data-name="Group 1710696" transform="translate(6.525 1.707)">
            <g id="Group_1710694" data-name="Group 1710694">
              <path id="Path_1823379" data-name="Path 1823379" d="M38.432,3.475a27.881,27.881,0,0,0-3.644-.236,23.034,23.034,0,0,0-11.342,2.7C20.579,7.6,19,9.762,19,12.026c0,2.282,1.607,4.461,4.518,6.134.074.043.15.085.227.127A23.405,23.405,0,0,0,34.9,20.864q1.078,0,2.129-.08c3.209-8.386,2.33-14.317,1.407-17.308Z" transform="translate(-19.004 -3.239)" fill="#ffd06c"/>
            </g>
            <g id="Group_1710695" data-name="Group 1710695" transform="translate(18.021 0.236)">
              <path id="Path_1823380" data-name="Path 1823380" d="M36.532,5.816A21.2,21.2,0,0,0,28.8,3.349c.924,2.991,1.8,8.922-1.407,17.308a22.151,22.151,0,0,0,8.911-2.453c.1-.056.2-.113.3-.169,2.868-1.661,4.446-3.821,4.443-6.086,0-2.283-1.607-4.461-4.517-6.134Z" transform="translate(-27.394 -3.349)" fill="#febc1f"/>
            </g>
          </g>
          <g id="Group_1710697" data-name="Group 1710697" transform="translate(0 19.662)">
            <path id="Path_1823381" data-name="Path 1823381" d="M29.485,28.37a14.255,14.255,0,0,0,2.181-.537l-2.525-1.461a10.447,10.447,0,0,1-6.649.251,9.484,9.484,0,0,1-2.674-6.677l9.337-5.368,0-1.484-2.525-1.461-10.65,6.123L18.5,19.217v0l-2.534-1.454.021.727a13.069,13.069,0,0,0,.988,5.3,8.085,8.085,0,0,0,2.706,3.444,4.719,4.719,0,0,0,.6.385l2.535,1.455a5.6,5.6,0,0,1-.6-.364c-.021-.015-.034-.038-.055-.053.018.013.034.03.052.043,2.654,1.892,6.091,1.761,9.187.733l.265-1.606a14.224,14.224,0,0,1-2.181.537ZM18.5,19.968v-.7l0,.7a13.361,13.361,0,0,0,1,5.3c.006.013.013.024.019.037-.008-.018-.021-.03-.028-.048a13.332,13.332,0,0,1-.988-5.283ZM29.33,28.4" transform="translate(-15.966 -11.633)" fill="#ffd06c"/>
          </g>
          <g id="Group_1710706" data-name="Group 1710706" transform="translate(0 19.662)">
            <g id="Group_1710699" data-name="Group 1710699" transform="translate(5.223 14.446)">
              <g id="Group_1710698" data-name="Group 1710698">
                <path id="Path_1823382" data-name="Path 1823382" d="M20.923,19.848,18.4,18.386c2.045,1.183,4.782,1.344,7.952.293l2.525,1.461C25.705,21.192,22.968,21.031,20.923,19.848Z" transform="translate(-18.398 -18.386)" fill="#ffde9b"/>
              </g>
            </g>
            <g id="Group_1710701" data-name="Group 1710701" transform="translate(0 6.132)">
              <g id="Group_1710700" data-name="Group 1710700">
                <path id="Path_1823383" data-name="Path 1823383" d="M22.818,25.815,20.284,24.36a4.719,4.719,0,0,1-.6-.385,8.085,8.085,0,0,1-2.706-3.444,13.069,13.069,0,0,1-.988-5.3l-.021-.727L18.5,15.954V16.7a13.332,13.332,0,0,0,.988,5.283,8.325,8.325,0,0,0,2.728,3.465,5.6,5.6,0,0,0,.6.364Z" transform="translate(-15.966 -14.499)" fill="#febc1f"/>
              </g>
            </g>
            <g id="Group_1710703" data-name="Group 1710703" transform="translate(0.009)">
              <g id="Group_1710702" data-name="Group 1710702">
                <path id="Path_1823384" data-name="Path 1823384" d="M18.5,19.217l-2.525-1.461,10.65-6.123,2.525,1.461Z" transform="translate(-15.971 -11.633)" fill="#ffde9b"/>
              </g>
            </g>
            <g id="Group_1710705" data-name="Group 1710705" transform="translate(2.534 1.461)">
              <g id="Group_1710704" data-name="Group 1710704">
                <path id="Path_1823385" data-name="Path 1823385" d="M27.8,12.316l0,1.484-9.337,5.368c.333,6.886,5.116,10.12,11.848,7.887l-.265,1.606c-3.1,1.027-6.533,1.159-9.187-.733a8.112,8.112,0,0,1-2.715-3.445,13.36,13.36,0,0,1-1-5.3l0-.742Z" transform="translate(-17.146 -12.316)" fill="#ffd06c"/>
              </g>
            </g>
          </g>
        </g>
      </g>
      <g id="Group_1710713" data-name="Group 1710713" transform="translate(635.098 446.562)">
        <path id="Path_1823280" data-name="Path 1823280" d="M887.582,333.882a23.436,23.436,0,1,0-23.534-23.436A23.485,23.485,0,0,0,887.582,333.882Z" transform="translate(-864.048 -287.01)" fill="#c2272e"/>
        <path id="Path_1823281" data-name="Path 1823281" d="M909.965,332.929a3.824,3.824,0,0,0,0,5.4l4.783,4.79-4.659,4.666a3.818,3.818,0,0,0,5.4,5.4l4.659-4.665,4.659,4.665a3.818,3.818,0,1,0,5.4-5.4l-4.659-4.666,4.783-4.79a3.818,3.818,0,0,0-5.4-5.4l-4.783,4.79-4.783-4.79A3.812,3.812,0,0,0,909.965,332.929Z" transform="translate(-896.623 -319.678)" fill="#fff"/>
      </g>
    </g>
  </g>
</svg>
