<svg xmlns="http://www.w3.org/2000/svg" xmlns:xlink="http://www.w3.org/1999/xlink" width="116" height="68" viewBox="0 0 116 68"><defs><style>.a{fill:none;}.b{fill:url(#a);}.c{fill:url(#b);}</style><linearGradient id="a" x1="0.5" x2="0.5" y2="1" gradientUnits="objectBoundingBox"><stop offset="0" stop-color="#126ae6"/><stop offset="0.221" stop-color="#1165df"/><stop offset="0.518" stop-color="#0e5ace"/><stop offset="0.856" stop-color="#0a46b3"/><stop offset="1" stop-color="#093da5"/></linearGradient><linearGradient id="b" x1="0.5" x2="0.5" y2="1" gradientUnits="objectBoundingBox"><stop offset="0" stop-color="#eb393c"/><stop offset="0.249" stop-color="#e43437"/><stop offset="0.582" stop-color="#d32629"/><stop offset="0.963" stop-color="#b80f12"/><stop offset="1" stop-color="#b50d10"/></linearGradient></defs><g transform="translate(6824 74)"><rect class="a" width="116" height="68" transform="translate(-6824 -74)"/><g transform="translate(-6888 140.399)"><path d="M116.038-182.572v-8.6h1.775v8.6Zm4.042,0v-8.6h1.837l3.387,5.3h.063v-5.3h1.7v8.6h-1.687l-3.537-5.587h-.062v5.587Zm10.978,0v-7.1h-2.487v-1.5h6.749v1.5h-2.487v7.1Zm5.767,0v-8.6H138.6v8.6Zm4.114,0v-8.6h1.774v3.5h.913l2.612-3.5h1.937l-3.124,4.112,3.161,4.487h-2.037l-2.549-3.65h-.913v3.65Zm12.118.1a9.9,9.9,0,0,1-1.731-.125,2.512,2.512,0,0,1-1.069-.419,1.653,1.653,0,0,1-.562-.8,4.856,4.856,0,0,1-.225-1.256q-.05-.75-.05-1.8t.05-1.8a4.856,4.856,0,0,1,.225-1.256,1.653,1.653,0,0,1,.562-.8,2.512,2.512,0,0,1,1.069-.419,9.9,9.9,0,0,1,1.731-.125,9.9,9.9,0,0,1,1.731.125,2.507,2.507,0,0,1,1.068.419,1.692,1.692,0,0,1,.569.8,4.674,4.674,0,0,1,.231,1.256q.049.75.05,1.8t-.05,1.8a4.674,4.674,0,0,1-.231,1.256,1.692,1.692,0,0,1-.569.8,2.507,2.507,0,0,1-1.068.419A9.9,9.9,0,0,1,153.057-182.472Zm0-1.45a8.536,8.536,0,0,0,.893-.038,1.176,1.176,0,0,0,.544-.175.8.8,0,0,0,.294-.45,3.707,3.707,0,0,0,.118-.862q.025-.549.025-1.425t-.025-1.424a3.725,3.725,0,0,0-.118-.863.807.807,0,0,0-.294-.45,1.188,1.188,0,0,0-.544-.175,8.578,8.578,0,0,0-.893-.037,8.417,8.417,0,0,0-.881.037,1.187,1.187,0,0,0-.544.175.807.807,0,0,0-.294.45,3.725,3.725,0,0,0-.118.863q-.025.549-.025,1.424t.025,1.425a3.707,3.707,0,0,0,.118.862.8.8,0,0,0,.294.45,1.176,1.176,0,0,0,.544.175A8.378,8.378,0,0,0,153.057-183.922Zm5.594,1.35v-8.6h2.437l2.124,5.674h.075l2.112-5.674h2.425v8.6h-1.712v-5.987h-.063l-2.224,5.987H162.6l-2.225-5.987h-.062v5.987Z"/><path d="M116.038-168.757v-8.6h1.775v7.1h3.6v1.5Zm6.942,0v-8.6h5.873v1.45h-4.1v2.087h3.512v1.449h-3.512v2.163h4.1v1.449Zm6.893,0,2.912-8.6h2.375l2.912,8.6H136.26l-.638-1.9H132.26l-.612,1.9Zm2.837-3.337h2.45l-1.187-3.649H133.9Zm13.628,3.337-1.375-3.387a1.493,1.493,0,0,0,.806-.624,2.491,2.491,0,0,0,.331-.925,6.34,6.34,0,0,0,.075-.938,6.2,6.2,0,0,0-.094-1.131,2.057,2.057,0,0,0-.356-.862,1.626,1.626,0,0,0-.768-.544,3.963,3.963,0,0,0-1.344-.187H139.5v8.6h1.774v-3.149h1.85c.053,0,.1,0,.149,0l1.188,3.153ZM144.363-174a.657.657,0,0,1-.187.387.9.9,0,0,1-.45.206,4.216,4.216,0,0,1-.825.063h-1.625v-2.575h1.637a4.313,4.313,0,0,1,.831.063.855.855,0,0,1,.444.2.665.665,0,0,1,.175.387,4.426,4.426,0,0,1,.038.637A4.3,4.3,0,0,1,144.363-174Zm3.877,5.242v-8.6h1.837l3.387,5.3h.062v-5.3h1.7v8.6h-1.687L150-174.343h-.062v5.586Zm9.181-.072v-8.6H159.2v8.6Zm4.187,0v-8.6h1.837l3.387,5.3h.062v-5.3h1.7v8.6h-1.687l-3.537-5.587h-.063v5.587Zm12.705.1a8.708,8.708,0,0,1-1.594-.125,2.857,2.857,0,0,1-1.087-.419,1.943,1.943,0,0,1-.669-.794,4.142,4.142,0,0,1-.331-1.256,15.031,15.031,0,0,1-.094-1.805,15.037,15.037,0,0,1,.094-1.806,4,4,0,0,1,.338-1.256,1.993,1.993,0,0,1,.674-.794,2.876,2.876,0,0,1,1.081-.419,8.608,8.608,0,0,1,1.588-.125q.412,0,.918.038t1.006.094c.333.037.642.085.925.143v1.363q-.438-.063-.85-.1t-.75-.063c-.225-.016-.412-.025-.562-.025q-.713,0-1.187.031a2.246,2.246,0,0,0-.775.169.94.94,0,0,0-.456.45,2.634,2.634,0,0,0-.219.869,13.194,13.194,0,0,0-.062,1.431q0,.774.043,1.3a3.488,3.488,0,0,0,.163.863,1.09,1.09,0,0,0,.35.518,1.312,1.312,0,0,0,.6.244,5.574,5.574,0,0,0,.918.063c.133,0,.273,0,.419-.007s.283-.01.412-.018.236-.017.319-.025v-2.125h-1.437v-1.4H177.2V-169c-.284.058-.6.106-.95.144s-.692.068-1.025.093S174.588-168.729,174.313-168.729Z"/><path class="b" d="M72.768-176.343a14.06,14.06,0,0,0,2.95,8.638.327.327,0,0,1-.037.443l-3.95,3.576a.325.325,0,0,1-.47-.034A20.01,20.01,0,0,1,66.8-176.343a20,20,0,0,1,2.764-10.173.327.327,0,0,1,.5-.082l4.094,3.6a.327.327,0,0,1,.075.391A14.066,14.066,0,0,0,72.768-176.343ZM103.725-186.6,99.631-183a.327.327,0,0,0-.075.391,14.065,14.065,0,0,1,1.461,6.262,14.059,14.059,0,0,1-2.949,8.638.327.327,0,0,0,.037.443l3.95,3.576a.325.325,0,0,0,.47-.034,20.009,20.009,0,0,0,4.46-12.623,19.994,19.994,0,0,0-2.763-10.173A.327.327,0,0,0,103.725-186.6Zm-.864-1.94A20.06,20.06,0,0,0,88.1-196.4a.325.325,0,0,0-.342.325v5.33a.326.326,0,0,0,.3.324,14.109,14.109,0,0,1,10.276,5.794.325.325,0,0,0,.477.051l4.005-3.523A.325.325,0,0,0,102.861-188.538ZM70.97-188.1l4,3.523a.323.323,0,0,0,.476-.051,14.111,14.111,0,0,1,10.277-5.794.326.326,0,0,0,.3-.324v-5.33a.325.325,0,0,0-.343-.325,20.062,20.062,0,0,0-14.763,7.86A.326.326,0,0,0,70.97-188.1Z"/><path class="c" d="M77.938-177.627c0,.767,0,1.464,0,2.162,0,.184,0,.369,0,.553s-.016.347.231.428c.1.032.2.246.2.378.016,1.136.013,2.272.007,3.408a.468.468,0,0,1-.454.465c-.917.029-.949,0-.949-.907q0-1.4,0-2.8c0-.465.051-.536.5-.671,0-.318,0-.646,0-.974,0-.67-.006-1.34,0-2.01a.316.316,0,0,0-.226-.347c-.466-.194-.922-.408-1.382-.616l-.012-.005a.14.14,0,0,1,0-.255c.345-.159.665-.307.986-.452q4.889-2.212,9.778-4.426a.567.567,0,0,1,.517-.013q5.384,2.423,10.775,4.831h0a.14.14,0,0,1,0,.254c-.036.017-.071.034-.106.049-1.483.672-2.965,1.348-4.453,2.011a.4.4,0,0,0-.287.428c0,1.029-.018,2.059-.015,3.088a.32.32,0,0,1-.253.355c-1.971.705-3.938,1.419-5.911,2.121a.691.691,0,0,1-.415-.006c-1.957-.767-3.909-1.548-5.866-2.316a.34.34,0,0,1-.253-.385c.024-1,.027-2,.05-3a.315.315,0,0,0-.217-.35C79.46-176.941,78.73-177.273,77.938-177.627Z"/></g></g></svg>