<svg xmlns="http://www.w3.org/2000/svg" xmlns:xlink="http://www.w3.org/1999/xlink" width="280" height="77" viewBox="0 0 280 77">
  <defs>
    <clipPath id="clip-path">
      <rect id="Rectangle_448406" data-name="Rectangle 448406" width="280" height="77" transform="translate(2221 -176)" fill="none"/>
    </clipPath>
    <radialGradient id="radial-gradient" cx="0.5" cy="1" r="0.449" gradientTransform="translate(0 -5.122) scale(1 6.122)" gradientUnits="objectBoundingBox">
      <stop offset="0" stop-color="#feb201"/>
      <stop offset="0.128" stop-color="#ffb200"/>
      <stop offset="0.458" stop-color="#ffd200"/>
      <stop offset="1" stop-color="#ffd200"/>
    </radialGradient>
  </defs>
  <g id="Mask_Group_114" data-name="Mask Group 114" transform="translate(-2221 176)" clip-path="url(#clip-path)">
    <rect id="Rectangle_448398" data-name="Rectangle 448398" width="167.634" height="21.693" transform="matrix(0.978, 0.208, -0.208, 0.978, 2229.879, -185.649)" fill="#fff"/>
    <rect id="Rectangle_448399" data-name="Rectangle 448399" width="155.753" height="18" transform="matrix(0.974, -0.225, 0.225, 0.974, 2333.707, -147.116)" fill="#fff"/>
    <rect id="Rectangle_448400" data-name="Rectangle 448400" width="280" height="8" transform="translate(2221 -176.233)" fill="#fff"/>
    <rect id="Rectangle_448401" data-name="Rectangle 448401" width="136.634" height="24" transform="matrix(1, 0.017, -0.017, 1, 2295.466, -176.233)" fill="#fff"/>
    <g id="Group_1710750" data-name="Group 1710750" transform="translate(112 159.275)">
      <path id="Path_1823387" data-name="Path 1823387" d="M740.706-96.578v5.732a13.176,13.176,0,0,0,10.52,12.906l129.48,26.659,129.481-26.659a13.176,13.176,0,0,0,10.519-12.906v-5.732l-140,40.355Z" transform="translate(1368.294 -236.923)" fill="url(#radial-gradient)"/>
      <g id="Group_1710749" data-name="Group 1710749" transform="translate(2219.353 -317.852)">
        <g id="Ellipse_1461" data-name="Ellipse 1461" transform="translate(0)" fill="#ffd200" stroke="#fff" stroke-miterlimit="10" stroke-width="4">
          <circle cx="29.647" cy="29.647" r="29.647" stroke="none"/>
          <circle cx="29.647" cy="29.647" r="27.647" fill="none"/>
        </g>
        <path id="Path_1823346" data-name="Path 1823346" d="M1923.385-892.964l1.313-2.989a2.483,2.483,0,0,0,2.718-.964,7.36,7.36,0,0,0,1.045-3.415s-.828-.2-1.923.884a5.736,5.736,0,0,0-1.435,2.184l.6-3.2a2.49,2.49,0,0,0,2.273-1.3,6.459,6.459,0,0,0,.376-3.9,1.64,1.64,0,0,0-1.164.679,7.829,7.829,0,0,0-1.357,3.114l-.194-3.191a2.266,2.266,0,0,0,1.864-1.713,7.8,7.8,0,0,0-.329-4.019,2,2,0,0,0-1.253,1.169,6.9,6.9,0,0,0-.419,3.246l-.83-3.15a2.791,2.791,0,0,0,1.343-2.986,6.806,6.806,0,0,0-1.178-2.965,2.21,2.21,0,0,0-.863,1.3,8.836,8.836,0,0,0,.23,3.435l-1.53-2.882a2.78,2.78,0,0,0,.7-2.506,7.078,7.078,0,0,0-1.854-3.294,2.566,2.566,0,0,0-.532,1.825,7.59,7.59,0,0,0,.791,2.824,9.953,9.953,0,0,1-1.219-1.754c-1.211-2.882-1.657-3.179-5.343-3.541a5.125,5.125,0,0,0,.9,2.331,5.319,5.319,0,0,0,3.471,1.57,2.3,2.3,0,0,1,1.557,1.071c.128.184.273.355.39.546-2-1.171-3.468-1.23-4.184-.165a5.008,5.008,0,0,0,5.064,1.323l1.425,2.672c-1.772-1.637-2.539-1.676-4.2-1.153a4.454,4.454,0,0,0,4.721,2.48l.771,2.872c-.85-1.3-1.682-2.519-3.465-2.031.583,1.92,2.181,3.465,3.619,3.554q.1,1.564.191,3.136c-.783-2.314-1.2-2.771-3.021-2.931.184,2.77,1.447,3.834,2.915,4.337l-.556,2.981c-.176-1.584-.371-3.094-2.172-3.541-.229,1.334-.637,3.805,1.743,4.941l-1.194,2.765a3.718,3.718,0,0,0-.124-2.45,5.205,5.205,0,0,0-1.206-1.575,5.391,5.391,0,0,0,.567,5.34l-1.721,2.326a10.916,10.916,0,0,0,.438-2.287,2.011,2.011,0,0,0-.9-1.848,4.7,4.7,0,0,0-.588,5.254l-2.271,1.894c1.254-1.908,1.445-3.313.5-4.188a4.81,4.81,0,0,0-1.7,4.97l-2.635,1.286a3.168,3.168,0,0,0,1.687-2.312,4.94,4.94,0,0,0-.149-1.812c-2.607,1.456-2.935,2.915-2.818,4.6-.488.133-.988.261-1.482.406a10.622,10.622,0,0,0-1.076.368c-.092.039-.138.2-.206.31a1.052,1.052,0,0,0,.329.008c.845-.247,1.688-.511,2.542-.772a2.524,2.524,0,0,0,2.141,1.426,5.685,5.685,0,0,0,3.5-.7,2.487,2.487,0,0,0-1.647-1.235,5.751,5.751,0,0,0-2.842.1l2.863-1.391a2.514,2.514,0,0,0,2.471,1,4.742,4.742,0,0,0,3.069-1.738,2.859,2.859,0,0,0-2.436-.615,7.666,7.666,0,0,0-1.995.64l2.382-2a3.085,3.085,0,0,0,3.219.12,6.028,6.028,0,0,0,2.028-2.219,3.7,3.7,0,0,0-2.052-.181,4.572,4.572,0,0,0-2.157,1.174l1.792-2.421a3.279,3.279,0,0,0,3.066-.45,5.8,5.8,0,0,0,1.812-2.745,2.393,2.393,0,0,0-2.029.141A4.6,4.6,0,0,0,1923.385-892.964Zm-35.986.009-1.313-2.989a2.483,2.483,0,0,1-2.718-.964,7.352,7.352,0,0,1-1.046-3.415s.83-.2,1.924.884a5.728,5.728,0,0,1,1.434,2.184l-.6-3.2a2.488,2.488,0,0,1-2.272-1.3,6.452,6.452,0,0,1-.375-3.9,1.642,1.642,0,0,1,1.164.679,7.831,7.831,0,0,1,1.355,3.114l.194-3.191a2.268,2.268,0,0,1-1.863-1.713,7.805,7.805,0,0,1,.33-4.019,2,2,0,0,1,1.253,1.169,6.9,6.9,0,0,1,.419,3.246l.83-3.15a2.788,2.788,0,0,1-1.343-2.986,6.787,6.787,0,0,1,1.178-2.965,2.208,2.208,0,0,1,.863,1.3,8.855,8.855,0,0,1-.229,3.435l1.529-2.882a2.778,2.778,0,0,1-.7-2.506,7.085,7.085,0,0,1,1.853-3.294,2.563,2.563,0,0,1,.532,1.825,7.6,7.6,0,0,1-.79,2.824,9.951,9.951,0,0,0,1.218-1.754c1.211-2.882,1.658-3.179,5.343-3.541a5.135,5.135,0,0,1-.9,2.331,5.322,5.322,0,0,1-3.471,1.57,2.3,2.3,0,0,0-1.557,1.071c-.129.184-.273.355-.39.546,2-1.171,3.467-1.23,4.184-.165a5.008,5.008,0,0,1-5.063,1.323l-1.425,2.672c1.772-1.637,2.539-1.676,4.2-1.153a4.454,4.454,0,0,1-4.721,2.48l-.771,2.872c.85-1.3,1.682-2.519,3.465-2.031-.582,1.92-2.18,3.465-3.62,3.554q-.094,1.564-.19,3.136c.781-2.314,1.2-2.771,3.021-2.931-.183,2.769-1.446,3.834-2.914,4.337l.556,2.981c.175-1.584.37-3.094,2.172-3.541.229,1.334.637,3.806-1.743,4.941l1.193,2.765a3.723,3.723,0,0,1,.125-2.45,5.206,5.206,0,0,1,1.206-1.575,5.391,5.391,0,0,1-.567,5.34l1.72,2.326a10.858,10.858,0,0,1-.437-2.287,2.011,2.011,0,0,1,.9-1.848,4.7,4.7,0,0,1,.588,5.254l2.27,1.894c-1.254-1.908-1.444-3.313-.5-4.188a4.808,4.808,0,0,1,1.7,4.961l2.635,1.286a3.168,3.168,0,0,1-1.687-2.312,4.965,4.965,0,0,1,.15-1.812c2.607,1.456,2.934,2.915,2.818,4.6.488.133.988.261,1.482.406a10.637,10.637,0,0,1,1.077.368c.092.039.138.2.2.31a1.051,1.051,0,0,1-.329.008c-.846-.247-1.688-.511-2.543-.772a2.523,2.523,0,0,1-2.141,1.426,5.7,5.7,0,0,1-3.5-.7,2.487,2.487,0,0,1,1.647-1.235,5.75,5.75,0,0,1,2.842.1l-2.862-1.391a2.514,2.514,0,0,1-2.471,1,4.745,4.745,0,0,1-3.068-1.738,2.857,2.857,0,0,1,2.435-.615,7.672,7.672,0,0,1,2,.64l-2.383-2a3.083,3.083,0,0,1-3.219.12,6.032,6.032,0,0,1-2.027-2.219,3.7,3.7,0,0,1,2.051-.181,4.573,4.573,0,0,1,2.157,1.174l-1.793-2.421a3.278,3.278,0,0,1-3.066-.45,5.8,5.8,0,0,1-1.812-2.745,2.394,2.394,0,0,1,2.028.141A4.615,4.615,0,0,1,1887.4-892.955Z" transform="translate(-1875.745 932.583)" fill="#fff"/>
        <text id="_1" data-name="1" transform="translate(20.177 39.471)" fill="#fff" font-size="32" font-family="Roboto-Bold, Roboto" font-weight="700" style="isolation: isolate"><tspan x="0" y="0">1</tspan></text>
      </g>
    </g>
  </g>
</svg>
