<svg xmlns="http://www.w3.org/2000/svg" xmlns:xlink="http://www.w3.org/1999/xlink" width="110" height="61" viewBox="0 0 110 61"><defs><style>.a,.d{fill:#fff;}.b{fill:url(#a);}.c{fill:#ffd200;stroke:#fff;stroke-miterlimit:10;stroke-width:2px;}.d{font-size:20px;font-family:Roboto-Bold, Roboto;font-weight:700;isolation:isolate;}.e{stroke:none;}.f{fill:none;}</style><radialGradient id="a" cx="0.5" cy="1" r="0.449" gradientTransform="translate(0 -5.122) scale(1 6.122)" gradientUnits="objectBoundingBox"><stop offset="0" stop-color="#feb201"/><stop offset="0.128" stop-color="#ffb200"/><stop offset="0.458" stop-color="#ffd200"/><stop offset="1" stop-color="#ffd200"/></radialGradient></defs><g transform="translate(4570 -3482)"><path class="a" d="M0,0H110a0,0,0,0,1,0,0V12A14,14,0,0,1,96,26H14A14,14,0,0,1,0,12V0A0,0,0,0,1,0,0Z" transform="translate(-4570 3482)"/><path class="b" d="M790.706-96.578v6.562c0,7.158,3.108,13.331,7.439,14.774l47.561,14.664,47.562-14.664c4.331-1.443,7.438-7.616,7.438-14.774v-6.562l-55,28.343Z" transform="translate(-5360.706 3582.578)"/><g transform="translate(-6410.343 4436.122)"><g class="c" transform="translate(1874.343 -935.122)"><circle class="e" cx="21" cy="21" r="21"/><circle class="f" cx="21" cy="21" r="20"/></g><path class="a" d="M1911.734-900.648l.941-2.141a1.779,1.779,0,0,0,1.947-.69,5.274,5.274,0,0,0,.749-2.447s-.594-.146-1.378.633a4.113,4.113,0,0,0-1.028,1.565l.43-2.29a1.785,1.785,0,0,0,1.629-.931,4.628,4.628,0,0,0,.269-2.793,1.175,1.175,0,0,0-.834.487,5.608,5.608,0,0,0-.972,2.231l-.139-2.286a1.624,1.624,0,0,0,1.335-1.227,5.586,5.586,0,0,0-.236-2.88,1.435,1.435,0,0,0-.9.837,4.942,4.942,0,0,0-.3,2.325l-.595-2.257a2,2,0,0,0,.962-2.14,4.877,4.877,0,0,0-.844-2.124,1.584,1.584,0,0,0-.618.932,6.333,6.333,0,0,0,.165,2.461l-1.1-2.065a1.992,1.992,0,0,0,.5-1.8,5.07,5.07,0,0,0-1.329-2.36,1.839,1.839,0,0,0-.381,1.308,5.436,5.436,0,0,0,.566,2.023,7.121,7.121,0,0,1-.873-1.257c-.868-2.065-1.187-2.278-3.828-2.537a3.672,3.672,0,0,0,.645,1.67,3.811,3.811,0,0,0,2.487,1.125,1.652,1.652,0,0,1,1.116.767c.091.132.2.254.28.391-1.433-.839-2.485-.881-3-.118a3.589,3.589,0,0,0,3.628.948l1.021,1.914c-1.27-1.173-1.819-1.2-3.009-.826a3.192,3.192,0,0,0,3.382,1.777l.552,2.057c-.609-.93-1.2-1.805-2.483-1.455a3.453,3.453,0,0,0,2.593,2.547q.068,1.121.137,2.247c-.561-1.658-.86-1.986-2.165-2.1.132,1.984,1.037,2.747,2.089,3.107l-.4,2.136c-.126-1.135-.266-2.217-1.557-2.537-.164.956-.457,2.727,1.249,3.54l-.856,1.982a2.665,2.665,0,0,0-.089-1.755,3.729,3.729,0,0,0-.864-1.129,3.863,3.863,0,0,0,.406,3.826l-1.233,1.667a7.814,7.814,0,0,0,.314-1.639,1.441,1.441,0,0,0-.645-1.324,3.364,3.364,0,0,0-.421,3.765l-1.627,1.357c.9-1.367,1.036-2.374.36-3a3.446,3.446,0,0,0-1.218,3.561l-1.888.922a2.27,2.27,0,0,0,1.208-1.656,3.543,3.543,0,0,0-.107-1.3c-1.868,1.043-2.1,2.089-2.019,3.3-.35.095-.708.187-1.062.291a7.585,7.585,0,0,0-.771.264c-.066.028-.1.146-.148.222a.753.753,0,0,0,.236.006c.605-.177,1.21-.366,1.822-.553a1.808,1.808,0,0,0,1.534,1.022,4.073,4.073,0,0,0,2.507-.505,1.782,1.782,0,0,0-1.18-.885,4.119,4.119,0,0,0-2.036.07l2.051-1a1.8,1.8,0,0,0,1.77.715,3.4,3.4,0,0,0,2.2-1.246,2.048,2.048,0,0,0-1.745-.441,5.493,5.493,0,0,0-1.429.458l1.707-1.43a2.21,2.21,0,0,0,2.307.086,4.318,4.318,0,0,0,1.453-1.59,2.649,2.649,0,0,0-1.47-.13,3.277,3.277,0,0,0-1.545.841l1.284-1.735a2.349,2.349,0,0,0,2.2-.322,4.156,4.156,0,0,0,1.3-1.967,1.714,1.714,0,0,0-1.454.1A3.3,3.3,0,0,0,1911.734-900.648Zm-25.784.006-.941-2.141a1.779,1.779,0,0,1-1.947-.69,5.267,5.267,0,0,1-.749-2.447s.595-.146,1.378.633a4.1,4.1,0,0,1,1.027,1.565l-.43-2.29a1.783,1.783,0,0,1-1.628-.931,4.622,4.622,0,0,1-.269-2.793,1.176,1.176,0,0,1,.834.487,5.612,5.612,0,0,1,.971,2.231l.139-2.286a1.625,1.625,0,0,1-1.335-1.227,5.593,5.593,0,0,1,.236-2.88,1.434,1.434,0,0,1,.9.837,4.944,4.944,0,0,1,.3,2.326l.595-2.257a2,2,0,0,1-.962-2.14,4.862,4.862,0,0,1,.844-2.124,1.582,1.582,0,0,1,.618.932,6.34,6.34,0,0,1-.164,2.461l1.1-2.065a1.99,1.99,0,0,1-.5-1.8,5.076,5.076,0,0,1,1.328-2.36,1.837,1.837,0,0,1,.381,1.308,5.448,5.448,0,0,1-.566,2.023,7.127,7.127,0,0,0,.873-1.257c.868-2.065,1.188-2.278,3.828-2.537a3.678,3.678,0,0,1-.644,1.67,3.812,3.812,0,0,1-2.487,1.125,1.65,1.65,0,0,0-1.116.767c-.092.132-.2.254-.28.391,1.433-.839,2.484-.881,3-.118a3.588,3.588,0,0,1-3.628.948l-1.021,1.914c1.27-1.173,1.819-1.2,3.009-.826a3.191,3.191,0,0,1-3.382,1.777l-.552,2.057c.609-.93,1.2-1.8,2.482-1.455a3.451,3.451,0,0,1-2.593,2.547q-.067,1.12-.136,2.247c.56-1.658.86-1.986,2.164-2.1-.131,1.984-1.036,2.747-2.088,3.107l.4,2.136c.126-1.135.265-2.217,1.557-2.537.164.956.456,2.727-1.249,3.54l.855,1.982a2.668,2.668,0,0,1,.09-1.755,3.728,3.728,0,0,1,.864-1.129,3.863,3.863,0,0,1-.406,3.826l1.233,1.667a7.774,7.774,0,0,1-.313-1.639,1.441,1.441,0,0,1,.645-1.324,3.364,3.364,0,0,1,.421,3.765l1.626,1.357c-.9-1.367-1.035-2.374-.359-3a3.445,3.445,0,0,1,1.215,3.555l1.888.922a2.27,2.27,0,0,1-1.208-1.656,3.555,3.555,0,0,1,.107-1.3c1.868,1.043,2.1,2.089,2.019,3.3.35.095.708.187,1.062.291a7.606,7.606,0,0,1,.772.264c.066.028.1.146.147.222a.752.752,0,0,1-.236.006c-.606-.177-1.21-.366-1.822-.553a1.808,1.808,0,0,1-1.534,1.022,4.08,4.08,0,0,1-2.508-.505,1.782,1.782,0,0,1,1.18-.885,4.118,4.118,0,0,1,2.036.07l-2.05-1a1.8,1.8,0,0,1-1.77.715,3.4,3.4,0,0,1-2.2-1.246,2.046,2.046,0,0,1,1.745-.441,5.5,5.5,0,0,1,1.43.458l-1.708-1.43a2.209,2.209,0,0,1-2.307.086,4.322,4.322,0,0,1-1.453-1.59,2.655,2.655,0,0,1,1.47-.13,3.277,3.277,0,0,1,1.545.841l-1.285-1.735a2.349,2.349,0,0,1-2.2-.322,4.156,4.156,0,0,1-1.3-1.967,1.715,1.715,0,0,1,1.453.1A3.306,3.306,0,0,1,1885.951-900.641Z" transform="translate(-3.257 -6.23)"/><text class="d" transform="translate(1890.086 -907.122)"><tspan x="0" y="0">1</tspan></text></g></g></svg>