<svg xmlns="http://www.w3.org/2000/svg" xmlns:xlink="http://www.w3.org/1999/xlink" width="110" height="50" viewBox="0 0 110 50"><defs><style>.a,.d{fill:#fff;}.b{fill:url(#a);}.c{fill:#cd7f32;stroke:#fff;stroke-miterlimit:10;}.d{font-size:16px;font-family:Roboto-Bold, Roboto;font-weight:700;isolation:isolate;}.e{stroke:none;}.f{fill:none;}</style><radialGradient id="a" cx="0.5" cy="1" r="0.525" gradientTransform="matrix(1, 0, 0, -5.838, 0, 6.838)" gradientUnits="objectBoundingBox"><stop offset="0" stop-color="#b1651b"/><stop offset="0.246" stop-color="#b1651b"/><stop offset="0.502" stop-color="#cd7f32"/><stop offset="1" stop-color="#cd7f32"/></radialGradient></defs><g transform="translate(4448 -3482)"><path class="a" d="M0,0H110a0,0,0,0,1,0,0V9A14,14,0,0,1,96,23H14A14,14,0,0,1,0,9V0A0,0,0,0,1,0,0Z" transform="translate(-4448 3482)"/><path class="b" d="M1617.269-400.469v6.641c0,7.245,2.844,10.019,6.806,11.479l48.429,11.2,47.958-11.2c3.963-1.461,6.806-4.235,6.806-11.479v-6.641l-54.765,23.6Z" transform="translate(-6065.269 3886.145)"/><g transform="translate(-6594 2515.605)"><g class="c" transform="translate(2184 982.395)"><circle class="e" cx="17" cy="17" r="17"/><circle class="f" cx="17" cy="17" r="16.5"/></g><path class="a" d="M1905.427-904.808l.739-1.683a1.4,1.4,0,0,0,1.53-.542,4.144,4.144,0,0,0,.588-1.923s-.466-.115-1.083.5a3.229,3.229,0,0,0-.807,1.23l.338-1.8a1.4,1.4,0,0,0,1.28-.732,3.635,3.635,0,0,0,.212-2.2.923.923,0,0,0-.655.383,4.4,4.4,0,0,0-.764,1.753l-.109-1.8a1.276,1.276,0,0,0,1.049-.964,4.388,4.388,0,0,0-.185-2.263,1.127,1.127,0,0,0-.705.658,3.884,3.884,0,0,0-.236,1.827l-.467-1.774a1.572,1.572,0,0,0,.756-1.681,3.83,3.83,0,0,0-.663-1.669,1.245,1.245,0,0,0-.486.732,4.978,4.978,0,0,0,.129,1.934l-.861-1.623a1.565,1.565,0,0,0,.4-1.411,3.986,3.986,0,0,0-1.044-1.855,1.445,1.445,0,0,0-.3,1.028,4.274,4.274,0,0,0,.445,1.59,5.6,5.6,0,0,1-.686-.988c-.682-1.623-.933-1.79-3.008-1.994a2.883,2.883,0,0,0,.507,1.312,3,3,0,0,0,1.954.884,1.3,1.3,0,0,1,.877.6c.072.1.154.2.22.307-1.126-.659-1.953-.692-2.356-.093a2.82,2.82,0,0,0,2.851.745l.8,1.5c-1-.922-1.429-.944-2.365-.649a2.508,2.508,0,0,0,2.658,1.4l.434,1.617c-.479-.731-.947-1.418-1.951-1.143a2.713,2.713,0,0,0,2.038,2q.053.881.108,1.766c-.441-1.3-.676-1.56-1.7-1.65a2.4,2.4,0,0,0,1.641,2.442l-.313,1.678c-.1-.892-.208-1.742-1.223-1.994-.129.751-.359,2.143.981,2.782l-.672,1.557a2.094,2.094,0,0,0-.07-1.379,2.934,2.934,0,0,0-.679-.887,3.036,3.036,0,0,0,.319,3.007l-.969,1.31a6.14,6.14,0,0,0,.247-1.288,1.132,1.132,0,0,0-.507-1.04,2.644,2.644,0,0,0-.331,2.958l-1.278,1.066c.706-1.074.814-1.865.283-2.358a2.708,2.708,0,0,0-.957,2.8l-1.484.724a1.784,1.784,0,0,0,.95-1.3,2.783,2.783,0,0,0-.084-1.02c-1.468.82-1.653,1.641-1.587,2.591-.275.075-.557.147-.835.229a6,6,0,0,0-.606.207c-.052.022-.078.115-.116.175a.6.6,0,0,0,.186,0c.476-.139.95-.287,1.431-.435a1.421,1.421,0,0,0,1.206.8,3.2,3.2,0,0,0,1.97-.4,1.4,1.4,0,0,0-.927-.7,3.237,3.237,0,0,0-1.6.055l1.612-.783a1.415,1.415,0,0,0,1.391.561,2.67,2.67,0,0,0,1.728-.979,1.61,1.61,0,0,0-1.372-.346,4.308,4.308,0,0,0-1.123.36l1.342-1.124a1.737,1.737,0,0,0,1.812.068,3.4,3.4,0,0,0,1.142-1.249,2.082,2.082,0,0,0-1.155-.1,2.574,2.574,0,0,0-1.214.661l1.009-1.363a1.845,1.845,0,0,0,1.726-.253,3.261,3.261,0,0,0,1.02-1.545,1.346,1.346,0,0,0-1.142.079A2.59,2.59,0,0,0,1905.427-904.808Zm-20.261.005-.739-1.683a1.4,1.4,0,0,1-1.53-.542,4.14,4.14,0,0,1-.589-1.923s.467-.115,1.083.5a3.229,3.229,0,0,1,.807,1.23l-.338-1.8a1.4,1.4,0,0,1-1.279-.732,3.632,3.632,0,0,1-.212-2.2.924.924,0,0,1,.655.383,4.407,4.407,0,0,1,.763,1.753l.109-1.8a1.277,1.277,0,0,1-1.049-.965,4.392,4.392,0,0,1,.186-2.263,1.127,1.127,0,0,1,.705.658,3.884,3.884,0,0,1,.236,1.827l.468-1.774a1.57,1.57,0,0,1-.756-1.681,3.819,3.819,0,0,1,.664-1.669,1.244,1.244,0,0,1,.486.732,4.983,4.983,0,0,1-.129,1.934l.861-1.623a1.564,1.564,0,0,1-.4-1.411,3.99,3.99,0,0,1,1.043-1.855,1.443,1.443,0,0,1,.3,1.027,4.277,4.277,0,0,1-.444,1.59,5.587,5.587,0,0,0,.686-.988c.682-1.623.933-1.79,3.008-1.994a2.887,2.887,0,0,1-.506,1.312,3,3,0,0,1-1.954.884,1.3,1.3,0,0,0-.877.6c-.072.1-.154.2-.22.307,1.126-.659,1.952-.692,2.356-.093a2.819,2.819,0,0,1-2.851.745l-.8,1.5c1-.922,1.429-.944,2.365-.649a2.508,2.508,0,0,1-2.658,1.4l-.434,1.617c.479-.731.947-1.418,1.951-1.143a2.712,2.712,0,0,1-2.038,2q-.053.881-.107,1.766c.44-1.3.676-1.56,1.7-1.65a2.4,2.4,0,0,1-1.641,2.442l.313,1.678c.1-.892.208-1.742,1.223-1.994.129.751.358,2.143-.981,2.782l.672,1.557a2.1,2.1,0,0,1,.07-1.379,2.93,2.93,0,0,1,.679-.887,3.035,3.035,0,0,1-.319,3.007l.969,1.31a6.107,6.107,0,0,1-.246-1.288,1.132,1.132,0,0,1,.507-1.04,2.644,2.644,0,0,1,.331,2.958l1.278,1.066c-.706-1.074-.813-1.865-.282-2.358a2.707,2.707,0,0,1,.955,2.793l1.484.724a1.783,1.783,0,0,1-.95-1.3,2.792,2.792,0,0,1,.084-1.02c1.468.82,1.652,1.641,1.587,2.591.275.075.556.147.835.229a6.009,6.009,0,0,1,.607.207c.052.022.078.115.115.175a.6.6,0,0,1-.186,0c-.476-.139-.95-.287-1.432-.435a1.42,1.42,0,0,1-1.205.8,3.206,3.206,0,0,1-1.971-.4,1.4,1.4,0,0,1,.927-.7,3.237,3.237,0,0,1,1.6.055l-1.611-.783a1.415,1.415,0,0,1-1.391.561,2.671,2.671,0,0,1-1.728-.979,1.608,1.608,0,0,1,1.371-.346,4.317,4.317,0,0,1,1.124.36l-1.342-1.124a1.736,1.736,0,0,1-1.813.068,3.4,3.4,0,0,1-1.141-1.249,2.085,2.085,0,0,1,1.155-.1,2.573,2.573,0,0,1,1.214.661l-1.009-1.363a1.846,1.846,0,0,1-1.726-.253,3.264,3.264,0,0,1-1.02-1.545,1.348,1.348,0,0,1,1.142.079A2.6,2.6,0,0,1,1885.166-904.8Z" transform="translate(305.396 1910.124)"/><text class="d" transform="translate(2196.5 1004.894)"><tspan x="0" y="0">3</tspan></text></g></g></svg>