<svg xmlns="http://www.w3.org/2000/svg" xmlns:xlink="http://www.w3.org/1999/xlink" width="280" height="80" viewBox="0 0 280 80">
  <defs>
    <clipPath id="clip-path">
      <rect id="Rectangle_448407" data-name="Rectangle 448407" width="280" height="80" transform="translate(2628 -183)" fill="none"/>
    </clipPath>
    <radialGradient id="radial-gradient" cx="0.5" cy="1" r="0.525" gradientTransform="matrix(1, 0, 0, -5.838, 0, 6.838)" gradientUnits="objectBoundingBox">
      <stop offset="0" stop-color="#b1651b"/>
      <stop offset="0.246" stop-color="#b1651b"/>
      <stop offset="0.502" stop-color="#cd7f32"/>
      <stop offset="1" stop-color="#cd7f32"/>
    </radialGradient>
  </defs>
  <g id="Mask_Group_115" data-name="Mask Group 115" transform="translate(-2628 183)" clip-path="url(#clip-path)">
    <rect id="Rectangle_448402" data-name="Rectangle 448402" width="167.634" height="24" transform="matrix(0.978, 0.208, -0.208, 0.978, 2637.359, -195.083)" fill="#fff"/>
    <rect id="Rectangle_448403" data-name="Rectangle 448403" width="155.753" height="18" transform="matrix(0.974, -0.225, 0.225, 0.974, 2740.707, -154.293)" fill="#fff"/>
    <rect id="Rectangle_448404" data-name="Rectangle 448404" width="280" height="8" transform="translate(2628 -183.41)" fill="#fff"/>
    <rect id="Rectangle_448405" data-name="Rectangle 448405" width="136.634" height="24" transform="matrix(1, 0.017, -0.017, 1, 2702.466, -183.41)" fill="#fff"/>
    <g id="Group_1710752" data-name="Group 1710752" transform="translate(0 -17.915)">
      <path id="Path_1823341" data-name="Path 1823341" d="M1567.269-400.469v5.735a13.181,13.181,0,0,0,10.519,12.913l129.481,26.676,129.481-26.676a13.184,13.184,0,0,0,10.519-12.913v-5.735l-140,40.377Z" transform="translate(1060.731 237.974)" fill="url(#radial-gradient)"/>
      <g id="Group_1710751" data-name="Group 1710751" transform="translate(552 -1132.171)">
        <g id="Ellipse_1461" data-name="Ellipse 1461" transform="translate(2184 983)" fill="#cd7f32" stroke="#fff" stroke-miterlimit="10" stroke-width="3">
          <circle cx="32" cy="32" r="32" stroke="none"/>
          <circle cx="32" cy="32" r="30.5" fill="none"/>
        </g>
        <path id="Path_1823346" data-name="Path 1823346" d="M1926.647-890.813l1.417-3.226a2.681,2.681,0,0,0,2.934-1.04,7.946,7.946,0,0,0,1.128-3.686s-.894-.22-2.076.954a6.189,6.189,0,0,0-1.548,2.357l.648-3.45a2.688,2.688,0,0,0,2.453-1.4,6.97,6.97,0,0,0,.406-4.208,1.77,1.77,0,0,0-1.256.733,8.449,8.449,0,0,0-1.465,3.361l-.21-3.444a2.446,2.446,0,0,0,2.011-1.849,8.412,8.412,0,0,0-.355-4.338,2.161,2.161,0,0,0-1.352,1.261,7.447,7.447,0,0,0-.452,3.5l-.9-3.4a3.013,3.013,0,0,0,1.45-3.223,7.344,7.344,0,0,0-1.272-3.2,2.387,2.387,0,0,0-.932,1.4,9.539,9.539,0,0,0,.248,3.708l-1.652-3.111a3,3,0,0,0,.758-2.7,7.641,7.641,0,0,0-2-3.556,2.77,2.77,0,0,0-.574,1.97,8.192,8.192,0,0,0,.853,3.048,10.731,10.731,0,0,1-1.315-1.893c-1.308-3.111-1.789-3.431-5.767-3.822a5.531,5.531,0,0,0,.971,2.516,5.741,5.741,0,0,0,3.747,1.7,2.488,2.488,0,0,1,1.681,1.156c.138.2.294.383.421.589-2.159-1.264-3.743-1.327-4.516-.178a5.406,5.406,0,0,0,5.466,1.428l1.538,2.884c-1.913-1.767-2.74-1.809-4.533-1.245a4.808,4.808,0,0,0,5.1,2.677l.832,3.1c-.917-1.4-1.815-2.719-3.74-2.192.629,2.073,2.354,3.74,3.906,3.836q.1,1.688.206,3.385c-.845-2.5-1.3-2.991-3.261-3.163.2,2.989,1.562,4.139,3.146,4.681l-.6,3.218c-.19-1.709-.4-3.34-2.345-3.822-.247,1.44-.688,4.108,1.881,5.333l-1.289,2.985a4.014,4.014,0,0,0-.134-2.644,5.622,5.622,0,0,0-1.3-1.7,5.819,5.819,0,0,0,.612,5.764l-1.858,2.511a11.78,11.78,0,0,0,.473-2.468,2.171,2.171,0,0,0-.971-1.995,5.068,5.068,0,0,0-.635,5.671L1920.169-884c1.354-2.06,1.56-3.576.542-4.52a5.191,5.191,0,0,0-1.835,5.365l-2.844,1.388a3.42,3.42,0,0,0,1.821-2.5,5.337,5.337,0,0,0-.161-1.956c-2.814,1.572-3.168,3.147-3.042,4.967-.527.143-1.067.282-1.6.438a11.467,11.467,0,0,0-1.162.4c-.1.042-.149.219-.222.335a1.136,1.136,0,0,0,.356.009c.912-.267,1.822-.551,2.744-.833a2.724,2.724,0,0,0,2.311,1.54,6.136,6.136,0,0,0,3.777-.761,2.684,2.684,0,0,0-1.778-1.333,6.206,6.206,0,0,0-3.068.106l3.09-1.5a2.714,2.714,0,0,0,2.667,1.076,5.118,5.118,0,0,0,3.313-1.876,3.086,3.086,0,0,0-2.629-.664,8.268,8.268,0,0,0-2.153.691l2.572-2.155a3.329,3.329,0,0,0,3.475.13,6.507,6.507,0,0,0,2.189-2.395,3.99,3.99,0,0,0-2.214-.2,4.936,4.936,0,0,0-2.328,1.267l1.934-2.613a3.538,3.538,0,0,0,3.309-.485,6.255,6.255,0,0,0,1.956-2.963,2.582,2.582,0,0,0-2.19.152A4.967,4.967,0,0,0,1926.647-890.813Zm-38.842.01-1.417-3.226a2.68,2.68,0,0,1-2.933-1.04,7.935,7.935,0,0,1-1.129-3.686s.9-.22,2.077.954a6.187,6.187,0,0,1,1.547,2.357l-.648-3.45a2.686,2.686,0,0,1-2.452-1.4,6.964,6.964,0,0,1-.406-4.208,1.772,1.772,0,0,1,1.256.733,8.451,8.451,0,0,1,1.463,3.361l.21-3.444a2.448,2.448,0,0,1-2.011-1.849,8.42,8.42,0,0,1,.356-4.338,2.161,2.161,0,0,1,1.352,1.261,7.444,7.444,0,0,1,.452,3.5l.9-3.4a3.01,3.01,0,0,1-1.45-3.223,7.326,7.326,0,0,1,1.272-3.2,2.383,2.383,0,0,1,.932,1.4,9.553,9.553,0,0,1-.247,3.708l1.651-3.111a3,3,0,0,1-.757-2.7,7.647,7.647,0,0,1,2-3.556,2.766,2.766,0,0,1,.574,1.97,8.209,8.209,0,0,1-.852,3.048,10.734,10.734,0,0,0,1.314-1.893c1.308-3.111,1.789-3.431,5.767-3.822a5.538,5.538,0,0,1-.971,2.516,5.743,5.743,0,0,1-3.747,1.7,2.486,2.486,0,0,0-1.681,1.156c-.139.2-.294.383-.421.589,2.158-1.264,3.742-1.327,4.516-.178a5.4,5.4,0,0,1-5.465,1.428l-1.538,2.884c1.913-1.767,2.74-1.809,4.533-1.245a4.807,4.807,0,0,1-5.095,2.677l-.832,3.1c.917-1.4,1.815-2.719,3.74-2.192-.628,2.073-2.353,3.74-3.907,3.836q-.1,1.688-.205,3.385c.843-2.5,1.3-2.991,3.26-3.164-.2,2.989-1.561,4.139-3.146,4.681l.6,3.218c.189-1.709.4-3.34,2.345-3.822.247,1.44.687,4.108-1.881,5.333l1.288,2.985a4.019,4.019,0,0,1,.135-2.644,5.621,5.621,0,0,1,1.3-1.7,5.819,5.819,0,0,1-.611,5.764l1.857,2.511a11.7,11.7,0,0,1-.472-2.468,2.171,2.171,0,0,1,.972-1.995,5.068,5.068,0,0,1,.635,5.671l2.45,2.044c-1.354-2.06-1.559-3.576-.542-4.52a5.189,5.189,0,0,1,1.83,5.355l2.844,1.388a3.419,3.419,0,0,1-1.821-2.5,5.354,5.354,0,0,1,.162-1.956c2.813,1.572,3.167,3.147,3.042,4.967.527.143,1.067.282,1.6.438a11.488,11.488,0,0,1,1.163.4c.1.042.149.219.221.335a1.135,1.135,0,0,1-.355.009c-.913-.267-1.822-.551-2.745-.833a2.723,2.723,0,0,1-2.311,1.54,6.147,6.147,0,0,1-3.778-.761,2.685,2.685,0,0,1,1.778-1.333,6.2,6.2,0,0,1,3.067.106l-3.089-1.5a2.713,2.713,0,0,1-2.667,1.076,5.121,5.121,0,0,1-3.312-1.876,3.083,3.083,0,0,1,2.628-.664,8.281,8.281,0,0,1,2.154.691l-2.573-2.155a3.327,3.327,0,0,1-3.475.13,6.51,6.51,0,0,1-2.188-2.395,4,4,0,0,1,2.214-.2,4.937,4.937,0,0,1,2.328,1.267l-1.935-2.613a3.539,3.539,0,0,1-3.31-.485,6.256,6.256,0,0,1-1.955-2.963,2.584,2.584,0,0,1,2.189.152A4.982,4.982,0,0,1,1887.806-890.8Z" transform="translate(308.774 1916.576)" fill="#fff"/>
        <text id="_3" data-name="3" transform="translate(2207.5 1025.5)" fill="#fff" font-size="30" font-family="Roboto-Bold, Roboto" font-weight="700" style="isolation: isolate"><tspan x="0" y="0">3</tspan></text>
      </g>
    </g>
  </g>
</svg>
